<svg width="112" height="97" viewBox="0 0 112 97" fill="none" xmlns="http://www.w3.org/2000/svg">
<path d="M17.2198 3.85381C16.9116 3.85381 16.6102 3.76262 16.3539 3.59176C16.0976 3.42091 15.8978 3.17806 15.7798 2.89394C15.6618 2.60981 15.631 2.29717 15.6911 1.99555C15.7513 1.69392 15.8997 1.41686 16.1177 1.1994C16.3357 0.981945 16.6134 0.833854 16.9157 0.773857C17.2181 0.71386 17.5315 0.744653 17.8163 0.862341C18.1011 0.980029 18.3445 1.17933 18.5158 1.43503C18.6871 1.69074 18.7785 1.99136 18.7785 2.2989C18.7765 2.71068 18.6117 3.10505 18.3198 3.39623C18.0279 3.68741 17.6326 3.85186 17.2198 3.85381Z" fill="#9B9B9B"/>
<path d="M17.2198 17.2082C16.9112 17.2082 16.6096 17.1168 16.3531 16.9457C16.0966 16.7745 15.8969 16.5312 15.7791 16.2466C15.6614 15.9621 15.6309 15.649 15.6917 15.3472C15.7524 15.0454 15.9016 14.7684 16.1204 14.5512C16.3391 14.334 16.6175 14.1865 16.9203 14.1274C17.2232 14.0682 17.5368 14.1001 17.8215 14.2189C18.1062 14.3377 18.3491 14.5382 18.5194 14.7949C18.6898 15.0516 18.78 15.3529 18.7785 15.6608C18.7765 16.0719 18.6114 16.4654 18.3193 16.7554C18.0272 17.0454 17.6319 17.2082 17.2198 17.2082Z" fill="#9B9B9B"/>
<path d="M17.2198 30.5701C16.9116 30.5701 16.6102 30.4789 16.3539 30.3081C16.0976 30.1372 15.8978 29.8944 15.7798 29.6102C15.6618 29.3261 15.631 29.0135 15.6911 28.7118C15.7513 28.4102 15.8997 28.1332 16.1177 27.9157C16.3357 27.6982 16.6134 27.5501 16.9157 27.4901C17.2181 27.4301 17.5315 27.4609 17.8163 27.5786C18.1011 27.6963 18.3445 27.8956 18.5158 28.1513C18.6871 28.407 18.7785 28.7077 18.7785 29.0152C18.7785 29.2194 18.7382 29.4216 18.6598 29.6102C18.5815 29.7989 18.4667 29.9703 18.322 30.1147C18.1772 30.2591 18.0054 30.3736 17.8163 30.4517C17.6272 30.5299 17.4245 30.5701 17.2198 30.5701Z" fill="#9B9B9B"/>
<path d="M17.2198 43.932C16.9103 43.9319 16.6078 43.8399 16.3509 43.6677C16.0939 43.4955 15.8942 43.2509 15.7772 42.965C15.6601 42.6791 15.6311 42.365 15.6937 42.0626C15.7563 41.7602 15.9077 41.4832 16.1287 41.267C16.3496 41.0508 16.6302 40.9051 16.9344 40.8485C17.2387 40.7919 17.553 40.8269 17.8373 40.9492C18.1215 41.0715 18.3628 41.2754 18.5304 41.535C18.6981 41.7946 18.7844 42.0981 18.7785 42.4068C18.7688 42.8134 18.6005 43.2002 18.3095 43.485C18.0184 43.7698 17.6275 43.9301 17.2198 43.932Z" fill="#9B9B9B"/>
<path d="M17.2198 56.9218C16.9116 56.9218 16.6102 56.8306 16.3539 56.6598C16.0976 56.4889 15.8978 56.2461 15.7798 55.962C15.6618 55.6778 15.631 55.3652 15.6911 55.0636C15.7513 54.762 15.8997 54.4849 16.1177 54.2674C16.3357 54.05 16.6134 53.9019 16.9157 53.8419C17.2181 53.7819 17.5315 53.8127 17.8163 53.9304C18.1011 54.0481 18.3445 54.2474 18.5158 54.5031C18.6871 54.7588 18.7785 55.0594 18.7785 55.3669C18.7785 55.7793 18.6143 56.1748 18.322 56.4664C18.0297 56.758 17.6332 56.9218 17.2198 56.9218Z" fill="#9B9B9B"/>
<path d="M17.2198 70.2837C16.9116 70.2837 16.6102 70.1925 16.3539 70.0217C16.0976 69.8508 15.8978 69.608 15.7798 69.3238C15.6618 69.0397 15.631 68.7271 15.6911 68.4254C15.7513 68.1238 15.8997 67.8468 16.1177 67.6293C16.3357 67.4118 16.6134 67.2637 16.9157 67.2038C17.2181 67.1438 17.5315 67.1745 17.8163 67.2922C18.1011 67.4099 18.3445 67.6092 18.5158 67.8649C18.6871 68.1206 18.7785 68.4213 18.7785 68.7288C18.7765 69.1406 18.6117 69.5349 18.3198 69.8261C18.0279 70.1173 17.6326 70.2818 17.2198 70.2837Z" fill="#9B9B9B"/>
<path d="M17.2198 83.6456C16.9116 83.6456 16.6102 83.5544 16.3539 83.3835C16.0976 83.2127 15.8978 82.9698 15.7798 82.6857C15.6618 82.4016 15.631 82.0889 15.6911 81.7873C15.7513 81.4857 15.8997 81.2086 16.1177 80.9912C16.3357 80.7737 16.6134 80.6256 16.9157 80.5656C17.2181 80.5056 17.5315 80.5364 17.8163 80.6541C18.1011 80.7718 18.3445 80.9711 18.5158 81.2268C18.6871 81.4825 18.7785 81.7831 18.7785 82.0907C18.7765 82.5024 18.6117 82.8968 18.3198 83.188C18.0279 83.4792 17.6326 83.6436 17.2198 83.6456Z" fill="#9B9B9B"/>
<path d="M17.2198 97C16.9116 97 16.6102 96.9088 16.3539 96.7379C16.0976 96.5671 15.8978 96.3242 15.7798 96.0401C15.6618 95.756 15.631 95.4434 15.6911 95.1417C15.7513 94.8401 15.8997 94.563 16.1177 94.3456C16.3357 94.1281 16.6134 93.98 16.9157 93.92C17.2181 93.86 17.5315 93.8908 17.8163 94.0085C18.1011 94.1262 18.3445 94.3255 18.5158 94.5812C18.6871 94.8369 18.7785 95.1375 18.7785 95.4451C18.7785 95.8575 18.6143 96.253 18.322 96.5446C18.0297 96.8362 17.6332 97 17.2198 97Z" fill="#9B9B9B"/>
<path d="M1.55866 3.85381C1.25039 3.85381 0.949035 3.76262 0.692715 3.59176C0.436395 3.42091 0.236618 3.17806 0.118647 2.89394C0.000675338 2.60981 -0.0301913 2.29717 0.0299499 1.99555C0.0900911 1.69392 0.238539 1.41686 0.456521 1.1994C0.674504 0.981945 0.95223 0.833854 1.25458 0.773857C1.55693 0.71386 1.87032 0.744653 2.15513 0.862341C2.43994 0.980029 2.68337 1.17933 2.85464 1.43503C3.0259 1.69074 3.11732 1.99136 3.11732 2.2989C3.11536 2.71068 2.95051 3.10505 2.65863 3.39623C2.36675 3.68741 1.97144 3.85186 1.55866 3.85381Z" fill="#9B9B9B"/>
<path d="M1.55866 17.2082C1.25007 17.2082 0.948424 17.1168 0.691945 16.9457C0.435466 16.7745 0.235696 16.5312 0.117947 16.2466C0.000197942 15.9621 -0.0302301 15.649 0.030518 15.3472C0.0912661 15.0454 0.240456 14.7684 0.459185 14.5512C0.677914 14.334 0.956338 14.1865 1.25918 14.1274C1.56202 14.0682 1.87564 14.1001 2.16032 14.2189C2.44499 14.3377 2.6879 14.5382 2.85827 14.7949C3.02864 15.0516 3.11879 15.3529 3.11732 15.6608C3.11535 16.0719 2.95026 16.4654 2.65817 16.7554C2.36608 17.0454 1.97075 17.2082 1.55866 17.2082Z" fill="#9B9B9B"/>
<path d="M1.55866 30.5701C1.25039 30.5701 0.949035 30.4789 0.692715 30.3081C0.436395 30.1372 0.236618 29.8944 0.118647 29.6102C0.000675338 29.3261 -0.0301913 29.0135 0.0299499 28.7118C0.0900911 28.4102 0.238539 28.1332 0.456521 27.9157C0.674504 27.6982 0.95223 27.5501 1.25458 27.4901C1.55693 27.4301 1.87032 27.4609 2.15513 27.5786C2.43994 27.6963 2.68337 27.8956 2.85464 28.1513C3.0259 28.407 3.11732 28.7077 3.11732 29.0152C3.11732 29.2194 3.077 29.4216 2.99867 29.6102C2.92034 29.7989 2.80553 29.9703 2.6608 30.1147C2.51606 30.2591 2.34424 30.3736 2.15513 30.4517C1.96603 30.5299 1.76335 30.5701 1.55866 30.5701Z" fill="#9B9B9B"/>
<path d="M1.55866 43.932C1.24913 43.9319 0.946622 43.8399 0.689695 43.6677C0.432769 43.4955 0.233057 43.2509 0.116013 42.965C-0.00103023 42.6791 -0.0301054 42.365 0.0324933 42.0626C0.0950921 41.7602 0.24653 41.4832 0.467506 41.267C0.688483 41.0508 0.968991 40.9051 1.27328 40.8485C1.57757 40.7919 1.89186 40.8269 2.17609 40.9492C2.46033 41.0715 2.70164 41.2754 2.86926 41.535C3.03689 41.7946 3.12324 42.0981 3.11732 42.4068C3.10762 42.8134 2.93936 43.2002 2.64831 43.485C2.35725 43.7698 1.96635 43.9301 1.55866 43.932Z" fill="#9B9B9B"/>
<path d="M1.55866 56.9218C1.25039 56.9218 0.949035 56.8306 0.692715 56.6598C0.436395 56.4889 0.236618 56.2461 0.118647 55.962C0.000675338 55.6778 -0.0301913 55.3652 0.0299499 55.0636C0.0900911 54.762 0.238539 54.4849 0.456521 54.2674C0.674504 54.05 0.95223 53.9019 1.25458 53.8419C1.55693 53.7819 1.87032 53.8127 2.15513 53.9304C2.43994 54.0481 2.68337 54.2474 2.85464 54.5031C3.0259 54.7588 3.11732 55.0594 3.11732 55.3669C3.11732 55.7793 2.9531 56.1748 2.6608 56.4664C2.36849 56.758 1.97204 56.9218 1.55866 56.9218Z" fill="#9B9B9B"/>
<path d="M1.55866 70.2837C1.25039 70.2837 0.949035 70.1925 0.692715 70.0217C0.436395 69.8508 0.236618 69.608 0.118647 69.3238C0.000675338 69.0397 -0.0301913 68.7271 0.0299499 68.4254C0.0900911 68.1238 0.238539 67.8468 0.456521 67.6293C0.674504 67.4118 0.95223 67.2637 1.25458 67.2038C1.55693 67.1438 1.87032 67.1745 2.15513 67.2922C2.43994 67.4099 2.68337 67.6092 2.85464 67.8649C3.0259 68.1206 3.11732 68.4213 3.11732 68.7288C3.11536 69.1406 2.95051 69.5349 2.65863 69.8261C2.36675 70.1173 1.97144 70.2818 1.55866 70.2837Z" fill="#9B9B9B"/>
<path d="M1.55866 83.6456C1.25039 83.6456 0.949035 83.5544 0.692715 83.3835C0.436395 83.2127 0.236618 82.9698 0.118647 82.6857C0.000675338 82.4016 -0.0301913 82.0889 0.0299499 81.7873C0.0900911 81.4857 0.238539 81.2086 0.456521 80.9912C0.674504 80.7737 0.95223 80.6256 1.25458 80.5656C1.55693 80.5056 1.87032 80.5364 2.15513 80.6541C2.43994 80.7718 2.68337 80.9711 2.85464 81.2268C3.0259 81.4825 3.11732 81.7831 3.11732 82.0907C3.11536 82.5024 2.95051 82.8968 2.65863 83.188C2.36675 83.4792 1.97144 83.6436 1.55866 83.6456Z" fill="#9B9B9B"/>
<path d="M1.55866 97C1.25039 97 0.949035 96.9088 0.692715 96.7379C0.436395 96.5671 0.236618 96.3242 0.118647 96.0401C0.000675338 95.756 -0.0301913 95.4434 0.0299499 95.1417C0.0900911 94.8401 0.238539 94.563 0.456521 94.3456C0.674504 94.1281 0.95223 93.98 1.25458 93.92C1.55693 93.86 1.87032 93.8908 2.15513 94.0085C2.43994 94.1262 2.68337 94.3255 2.85464 94.5812C3.0259 94.8369 3.11732 95.1375 3.11732 95.4451C3.11732 95.8575 2.9531 96.253 2.6608 96.5446C2.36849 96.8362 1.97204 97 1.55866 97Z" fill="#9B9B9B"/>
<path d="M48.5422 3.10983C48.2339 3.10983 47.9325 3.01864 47.6762 2.84778C47.4199 2.67693 47.2201 2.43408 47.1021 2.14996C46.9842 1.86583 46.9533 1.55319 47.0134 1.25157C47.0736 0.949944 47.222 0.672884 47.44 0.455425C47.658 0.237966 47.9357 0.0898748 48.2381 0.029878C48.5404 -0.0301188 48.8538 0.000673717 49.1386 0.118362C49.4234 0.23605 49.6669 0.435347 49.8381 0.691052C50.0094 0.946756 50.1008 1.24738 50.1008 1.55492C50.0989 1.9667 49.934 2.36107 49.6421 2.65225C49.3502 2.94343 48.9549 3.10788 48.5422 3.10983Z" fill="#9B9B9B"/>
<path d="M48.5422 16.4643C48.2336 16.4643 47.9319 16.3729 47.6754 16.2017C47.419 16.0305 47.2192 15.7872 47.1014 15.5027C46.9837 15.2181 46.9533 14.9051 47.014 14.6032C47.0748 14.3014 47.224 14.0244 47.4427 13.8072C47.6614 13.5901 47.9398 13.4426 48.2427 13.3834C48.5455 13.3242 48.8591 13.3561 49.1438 13.4749C49.4285 13.5938 49.6714 13.7942 49.8418 14.0509C50.0121 14.3076 50.1023 14.6089 50.1008 14.9168C50.0988 15.3279 49.9338 15.7215 49.6417 16.0115C49.3496 16.3015 48.9542 16.4643 48.5422 16.4643Z" fill="#9B9B9B"/>
<path d="M48.5422 29.8261C48.2339 29.8261 47.9325 29.7349 47.6762 29.5641C47.4199 29.3932 47.2201 29.1504 47.1021 28.8662C46.9842 28.5821 46.9533 28.2695 47.0134 27.9679C47.0736 27.6662 47.222 27.3892 47.44 27.1717C47.658 26.9543 47.9357 26.8062 48.2381 26.7462C48.5404 26.6862 48.8538 26.717 49.1386 26.8347C49.4234 26.9523 49.6669 27.1516 49.8381 27.4073C50.0094 27.663 50.1008 27.9637 50.1008 28.2712C50.1008 28.4754 50.0605 28.6776 49.9822 28.8662C49.9038 29.0549 49.789 29.2263 49.6443 29.3707C49.4996 29.5151 49.3277 29.6296 49.1386 29.7078C48.9495 29.7859 48.7468 29.8261 48.5422 29.8261Z" fill="#9B9B9B"/>
<path d="M48.5422 43.188C48.2326 43.1879 47.9301 43.0959 47.6732 42.9237C47.4163 42.7515 47.2166 42.5069 47.0995 42.221C46.9825 41.9352 46.9534 41.621 47.016 41.3186C47.0786 41.0162 47.23 40.7392 47.451 40.523C47.672 40.3068 47.9525 40.1611 48.2568 40.1045C48.5611 40.0479 48.8754 40.083 49.1596 40.2052C49.4438 40.3275 49.6851 40.5314 49.8528 40.791C50.0204 41.0506 50.1067 41.3541 50.1008 41.6628C50.0911 42.0694 49.9229 42.4562 49.6318 42.741C49.3407 43.0258 48.9498 43.1862 48.5422 43.188Z" fill="#9B9B9B"/>
<path d="M48.5422 56.1779C48.2339 56.1779 47.9325 56.0867 47.6762 55.9158C47.4199 55.745 47.2201 55.5021 47.1021 55.218C46.9842 54.9339 46.9533 54.6212 47.0134 54.3196C47.0736 54.018 47.222 53.7409 47.44 53.5235C47.658 53.306 47.9357 53.1579 48.2381 53.0979C48.5404 53.0379 48.8538 53.0687 49.1386 53.1864C49.4234 53.3041 49.6669 53.5034 49.8381 53.7591C50.0094 54.0148 50.1008 54.3154 50.1008 54.6229C50.1008 55.0353 49.9366 55.4308 49.6443 55.7224C49.352 56.014 48.9555 56.1779 48.5422 56.1779Z" fill="#9B9B9B"/>
<path d="M48.5422 69.5397C48.2339 69.5397 47.9325 69.4485 47.6762 69.2777C47.4199 69.1068 47.2201 68.864 47.1021 68.5798C46.9842 68.2957 46.9533 67.9831 47.0134 67.6815C47.0736 67.3798 47.222 67.1028 47.44 66.8853C47.658 66.6679 47.9357 66.5198 48.2381 66.4598C48.5404 66.3998 48.8538 66.4306 49.1386 66.5483C49.4234 66.6659 49.6669 66.8652 49.8381 67.1209C50.0094 67.3766 50.1008 67.6773 50.1008 67.9848C50.0989 68.3966 49.934 68.791 49.6421 69.0821C49.3502 69.3733 48.9549 69.5378 48.5422 69.5397Z" fill="#9B9B9B"/>
<path d="M48.5422 82.9016C48.2339 82.9016 47.9325 82.8104 47.6762 82.6395C47.4199 82.4687 47.2201 82.2258 47.1021 81.9417C46.9842 81.6576 46.9533 81.3449 47.0134 81.0433C47.0736 80.7417 47.222 80.4646 47.44 80.2472C47.658 80.0297 47.9357 79.8816 48.2381 79.8216C48.5404 79.7616 48.8538 79.7924 49.1386 79.9101C49.4234 80.0278 49.6669 80.2271 49.8381 80.4828C50.0094 80.7385 50.1008 81.0391 50.1008 81.3467C50.0989 81.7585 49.934 82.1528 49.6421 82.444C49.3502 82.7352 48.9549 82.8996 48.5422 82.9016Z" fill="#9B9B9B"/>
<path d="M48.5422 96.256C48.2339 96.256 47.9325 96.1648 47.6762 95.994C47.4199 95.8231 47.2201 95.5803 47.1021 95.2961C46.9842 95.012 46.9533 94.6994 47.0134 94.3978C47.0736 94.0961 47.222 93.8191 47.44 93.6016C47.658 93.3841 47.9357 93.2361 48.2381 93.1761C48.5404 93.1161 48.8538 93.1469 49.1386 93.2645C49.4234 93.3822 49.6669 93.5815 49.8381 93.8372C50.0094 94.0929 50.1008 94.3936 50.1008 94.7011C50.1008 95.1135 49.9366 95.509 49.6443 95.8006C49.352 96.0922 48.9555 96.256 48.5422 96.256Z" fill="#9B9B9B"/>
<path d="M32.881 3.10983C32.5727 3.10983 32.2714 3.01864 32.015 2.84778C31.7587 2.67693 31.5589 2.43408 31.441 2.14996C31.323 1.86583 31.2921 1.55319 31.3523 1.25157C31.4124 0.949944 31.5609 0.672884 31.7789 0.455425C31.9968 0.237966 32.2746 0.0898748 32.5769 0.029878C32.8793 -0.0301188 33.1927 0.000673717 33.4775 0.118362C33.7623 0.23605 34.0057 0.435347 34.177 0.691052C34.3482 0.946756 34.4396 1.24738 34.4396 1.55492C34.4377 1.9667 34.2728 2.36107 33.981 2.65225C33.6891 2.94343 33.2938 3.10788 32.881 3.10983Z" fill="#9B9B9B"/>
<path d="M32.881 16.4643C32.5724 16.4643 32.2708 16.3729 32.0143 16.2017C31.7578 16.0305 31.558 15.7872 31.4403 15.5027C31.3225 15.2181 31.2921 14.9051 31.3528 14.6032C31.4136 14.3014 31.5628 14.0244 31.7815 13.8072C32.0002 13.5901 32.2787 13.4426 32.5815 13.3834C32.8843 13.3242 33.198 13.3561 33.4827 13.4749C33.7673 13.5938 34.0102 13.7942 34.1806 14.0509C34.351 14.3076 34.4411 14.6089 34.4396 14.9168C34.4377 15.3279 34.2726 15.7215 33.9805 16.0115C33.6884 16.3015 33.2931 16.4643 32.881 16.4643Z" fill="#9B9B9B"/>
<path d="M32.881 29.8261C32.5727 29.8261 32.2714 29.7349 32.015 29.5641C31.7587 29.3932 31.5589 29.1504 31.441 28.8662C31.323 28.5821 31.2921 28.2695 31.3523 27.9679C31.4124 27.6662 31.5609 27.3892 31.7789 27.1717C31.9968 26.9543 32.2746 26.8062 32.5769 26.7462C32.8793 26.6862 33.1927 26.717 33.4775 26.8347C33.7623 26.9523 34.0057 27.1516 34.177 27.4073C34.3482 27.663 34.4396 27.9637 34.4396 28.2712C34.4396 28.4754 34.3993 28.6776 34.321 28.8662C34.2427 29.0549 34.1279 29.2263 33.9831 29.3707C33.8384 29.5151 33.6666 29.6296 33.4775 29.7078C33.2884 29.7859 33.0857 29.8261 32.881 29.8261Z" fill="#9B9B9B"/>
<path d="M32.881 43.188C32.5715 43.1879 32.269 43.0959 32.012 42.9237C31.7551 42.7515 31.5554 42.5069 31.4383 42.221C31.3213 41.9352 31.2922 41.621 31.3548 41.3186C31.4174 41.0162 31.5689 40.7392 31.7898 40.523C32.0108 40.3068 32.2913 40.1611 32.5956 40.1045C32.8999 40.0479 33.2142 40.083 33.4984 40.2052C33.7827 40.3275 34.024 40.5314 34.1916 40.791C34.3592 41.0506 34.4456 41.3541 34.4396 41.6628C34.4299 42.0694 34.2617 42.4562 33.9706 42.741C33.6796 43.0258 33.2887 43.1862 32.881 43.188Z" fill="#9B9B9B"/>
<path d="M32.881 56.1779C32.5727 56.1779 32.2714 56.0867 32.015 55.9158C31.7587 55.745 31.5589 55.5021 31.441 55.218C31.323 54.9339 31.2921 54.6212 31.3523 54.3196C31.4124 54.018 31.5609 53.7409 31.7789 53.5235C31.9968 53.306 32.2746 53.1579 32.5769 53.0979C32.8793 53.0379 33.1927 53.0687 33.4775 53.1864C33.7623 53.3041 34.0057 53.5034 34.177 53.7591C34.3482 54.0148 34.4396 54.3154 34.4396 54.6229C34.4396 55.0353 34.2754 55.4308 33.9831 55.7224C33.6908 56.014 33.2944 56.1779 32.881 56.1779Z" fill="#9B9B9B"/>
<path d="M32.881 69.5397C32.5727 69.5397 32.2714 69.4485 32.015 69.2777C31.7587 69.1068 31.5589 68.864 31.441 68.5798C31.323 68.2957 31.2921 67.9831 31.3523 67.6815C31.4124 67.3798 31.5609 67.1028 31.7789 66.8853C31.9968 66.6679 32.2746 66.5198 32.5769 66.4598C32.8793 66.3998 33.1927 66.4306 33.4775 66.5483C33.7623 66.6659 34.0057 66.8652 34.177 67.1209C34.3482 67.3766 34.4396 67.6773 34.4396 67.9848C34.4377 68.3966 34.2728 68.791 33.981 69.0821C33.6891 69.3733 33.2938 69.5378 32.881 69.5397Z" fill="#9B9B9B"/>
<path d="M32.881 82.9016C32.5727 82.9016 32.2714 82.8104 32.015 82.6395C31.7587 82.4687 31.5589 82.2258 31.441 81.9417C31.323 81.6576 31.2921 81.3449 31.3523 81.0433C31.4124 80.7417 31.5609 80.4646 31.7789 80.2472C31.9968 80.0297 32.2746 79.8816 32.5769 79.8216C32.8793 79.7616 33.1927 79.7924 33.4775 79.9101C33.7623 80.0278 34.0057 80.2271 34.177 80.4828C34.3482 80.7385 34.4396 81.0391 34.4396 81.3467C34.4377 81.7585 34.2728 82.1528 33.981 82.444C33.6891 82.7352 33.2938 82.8996 32.881 82.9016Z" fill="#9B9B9B"/>
<path d="M32.881 96.256C32.5727 96.256 32.2714 96.1648 32.015 95.994C31.7587 95.8231 31.5589 95.5803 31.441 95.2961C31.323 95.012 31.2921 94.6994 31.3523 94.3978C31.4124 94.0961 31.5609 93.8191 31.7789 93.6016C31.9968 93.3841 32.2746 93.2361 32.5769 93.1761C32.8793 93.1161 33.1927 93.1469 33.4775 93.2645C33.7623 93.3822 34.0057 93.5815 34.177 93.8372C34.3482 94.0929 34.4396 94.3936 34.4396 94.7011C34.4396 95.1135 34.2754 95.509 33.9831 95.8006C33.6908 96.0922 33.2944 96.256 32.881 96.256Z" fill="#9B9B9B"/>
<path d="M79.1187 3.85381C78.8104 3.85381 78.5091 3.76262 78.2528 3.59176C77.9965 3.42091 77.7967 3.17806 77.6787 2.89394C77.5607 2.60981 77.5299 2.29717 77.59 1.99555C77.6502 1.69392 77.7986 1.41686 78.0166 1.1994C78.2346 0.981945 78.5123 0.833854 78.8146 0.773857C79.117 0.71386 79.4304 0.744653 79.7152 0.862341C80 0.980029 80.2434 1.17933 80.4147 1.43503C80.586 1.69074 80.6774 1.99136 80.6774 2.2989C80.6754 2.71068 80.5106 3.10505 80.2187 3.39623C79.9268 3.68741 79.5315 3.85186 79.1187 3.85381Z" fill="#9B9B9B"/>
<path d="M79.1187 17.2082C78.8101 17.2082 78.5085 17.1168 78.252 16.9457C77.9955 16.7745 77.7958 16.5312 77.678 16.2466C77.5603 15.9621 77.5298 15.649 77.5906 15.3472C77.6513 15.0454 77.8005 14.7684 78.0192 14.5512C78.238 14.334 78.5164 14.1865 78.8192 14.1274C79.1221 14.0682 79.4357 14.1001 79.7204 14.2189C80.0051 14.3377 80.248 14.5382 80.4183 14.7949C80.5887 15.0516 80.6789 15.3529 80.6774 15.6608C80.6754 16.0719 80.5103 16.4654 80.2182 16.7554C79.9261 17.0454 79.5308 17.2082 79.1187 17.2082Z" fill="#9B9B9B"/>
<path d="M79.1187 30.5701C78.8104 30.5701 78.5091 30.4789 78.2528 30.3081C77.9965 30.1372 77.7967 29.8944 77.6787 29.6102C77.5607 29.3261 77.5299 29.0135 77.59 28.7118C77.6502 28.4102 77.7986 28.1332 78.0166 27.9157C78.2346 27.6982 78.5123 27.5501 78.8146 27.4901C79.117 27.4301 79.4304 27.4609 79.7152 27.5786C80 27.6963 80.2434 27.8956 80.4147 28.1513C80.586 28.407 80.6774 28.7077 80.6774 29.0152C80.6774 29.2194 80.6371 29.4216 80.5587 29.6102C80.4804 29.7989 80.3656 29.9703 80.2209 30.1147C80.0761 30.2591 79.9043 30.3736 79.7152 30.4517C79.5261 30.5299 79.3234 30.5701 79.1187 30.5701Z" fill="#9B9B9B"/>
<path d="M79.1187 43.932C78.8092 43.9319 78.5067 43.8399 78.2497 43.6677C77.9928 43.4955 77.7931 43.2509 77.6761 42.965C77.559 42.6791 77.53 42.365 77.5926 42.0626C77.6552 41.7602 77.8066 41.4832 78.0276 41.267C78.2485 41.0508 78.5291 40.9051 78.8333 40.8485C79.1376 40.7919 79.4519 40.8269 79.7362 40.9492C80.0204 41.0715 80.2617 41.2754 80.4293 41.535C80.5969 41.7946 80.6833 42.0981 80.6774 42.4068C80.6677 42.8134 80.4994 43.2002 80.2084 43.485C79.9173 43.7698 79.5264 43.9301 79.1187 43.932Z" fill="#9B9B9B"/>
<path d="M79.1187 56.9218C78.8104 56.9218 78.5091 56.8306 78.2528 56.6598C77.9965 56.4889 77.7967 56.2461 77.6787 55.962C77.5607 55.6778 77.5299 55.3652 77.59 55.0636C77.6502 54.762 77.7986 54.4849 78.0166 54.2674C78.2346 54.05 78.5123 53.9019 78.8146 53.8419C79.117 53.7819 79.4304 53.8127 79.7152 53.9304C80 54.0481 80.2434 54.2474 80.4147 54.5031C80.586 54.7588 80.6774 55.0594 80.6774 55.3669C80.6774 55.7793 80.5132 56.1748 80.2209 56.4664C79.9286 56.758 79.5321 56.9218 79.1187 56.9218Z" fill="#9B9B9B"/>
<path d="M79.1187 70.2837C78.8104 70.2837 78.5091 70.1925 78.2528 70.0217C77.9965 69.8508 77.7967 69.608 77.6787 69.3238C77.5607 69.0397 77.5299 68.7271 77.59 68.4254C77.6502 68.1238 77.7986 67.8468 78.0166 67.6293C78.2346 67.4118 78.5123 67.2637 78.8146 67.2038C79.117 67.1438 79.4304 67.1745 79.7152 67.2922C80 67.4099 80.2434 67.6092 80.4147 67.8649C80.586 68.1206 80.6774 68.4213 80.6774 68.7288C80.6754 69.1406 80.5106 69.5349 80.2187 69.8261C79.9268 70.1173 79.5315 70.2818 79.1187 70.2837Z" fill="#9B9B9B"/>
<path d="M79.1187 83.6456C78.8104 83.6456 78.5091 83.5544 78.2528 83.3835C77.9965 83.2127 77.7967 82.9698 77.6787 82.6857C77.5607 82.4016 77.5299 82.0889 77.59 81.7873C77.6502 81.4857 77.7986 81.2086 78.0166 80.9912C78.2346 80.7737 78.5123 80.6256 78.8146 80.5656C79.117 80.5056 79.4304 80.5364 79.7152 80.6541C80 80.7718 80.2434 80.9711 80.4147 81.2268C80.586 81.4825 80.6774 81.7831 80.6774 82.0907C80.6754 82.5024 80.5106 82.8968 80.2187 83.188C79.9268 83.4792 79.5315 83.6436 79.1187 83.6456Z" fill="#9B9B9B"/>
<path d="M79.1187 97C78.8104 97 78.5091 96.9088 78.2528 96.7379C77.9965 96.5671 77.7967 96.3242 77.6787 96.0401C77.5607 95.756 77.5299 95.4434 77.59 95.1417C77.6502 94.8401 77.7986 94.563 78.0166 94.3456C78.2346 94.1281 78.5123 93.98 78.8146 93.92C79.117 93.86 79.4304 93.8908 79.7152 94.0085C80 94.1262 80.2434 94.3255 80.4147 94.5812C80.586 94.8369 80.6774 95.1375 80.6774 95.4451C80.6774 95.8575 80.5132 96.253 80.2209 96.5446C79.9286 96.8362 79.5321 97 79.1187 97Z" fill="#9B9B9B"/>
<path d="M63.4576 3.85381C63.1493 3.85381 62.8479 3.76262 62.5916 3.59176C62.3353 3.42091 62.1355 3.17806 62.0175 2.89394C61.8996 2.60981 61.8687 2.29717 61.9288 1.99555C61.989 1.69392 62.1374 1.41686 62.3554 1.1994C62.5734 0.981945 62.8511 0.833854 63.1535 0.773857C63.4558 0.71386 63.7692 0.744653 64.054 0.862341C64.3388 0.980029 64.5823 1.17933 64.7535 1.43503C64.9248 1.69074 65.0162 1.99136 65.0162 2.2989C65.0143 2.71068 64.8494 3.10505 64.5575 3.39623C64.2656 3.68741 63.8703 3.85186 63.4576 3.85381Z" fill="#9B9B9B"/>
<path d="M63.4576 17.2082C63.149 17.2082 62.8473 17.1168 62.5908 16.9457C62.3344 16.7745 62.1346 16.5312 62.0168 16.2466C61.8991 15.9621 61.8687 15.649 61.9294 15.3472C61.9902 15.0454 62.1394 14.7684 62.3581 14.5512C62.5768 14.334 62.8552 14.1865 63.1581 14.1274C63.4609 14.0682 63.7745 14.1001 64.0592 14.2189C64.3439 14.3377 64.5868 14.5382 64.7572 14.7949C64.9275 15.0516 65.0177 15.3529 65.0162 15.6608C65.0142 16.0719 64.8492 16.4654 64.5571 16.7554C64.265 17.0454 63.8696 17.2082 63.4576 17.2082Z" fill="#9B9B9B"/>
<path d="M63.4576 30.5701C63.1493 30.5701 62.8479 30.4789 62.5916 30.3081C62.3353 30.1372 62.1355 29.8944 62.0175 29.6102C61.8996 29.3261 61.8687 29.0135 61.9288 28.7118C61.989 28.4102 62.1374 28.1332 62.3554 27.9157C62.5734 27.6982 62.8511 27.5501 63.1535 27.4901C63.4558 27.4301 63.7692 27.4609 64.054 27.5786C64.3388 27.6963 64.5823 27.8956 64.7535 28.1513C64.9248 28.407 65.0162 28.7077 65.0162 29.0152C65.0162 29.2194 64.9759 29.4216 64.8976 29.6102C64.8192 29.7989 64.7044 29.9703 64.5597 30.1147C64.415 30.2591 64.2431 30.3736 64.054 30.4517C63.8649 30.5299 63.6622 30.5701 63.4576 30.5701Z" fill="#9B9B9B"/>
<path d="M63.4576 43.932C63.148 43.9319 62.8455 43.8399 62.5886 43.6677C62.3317 43.4955 62.132 43.2509 62.0149 42.965C61.8979 42.6791 61.8688 42.365 61.9314 42.0626C61.994 41.7602 62.1454 41.4832 62.3664 41.267C62.5874 41.0508 62.8679 40.9051 63.1722 40.8485C63.4765 40.7919 63.7908 40.8269 64.075 40.9492C64.3592 41.0715 64.6005 41.2754 64.7682 41.535C64.9358 41.7946 65.0221 42.0981 65.0162 42.4068C65.0065 42.8134 64.8382 43.2002 64.5472 43.485C64.2561 43.7698 63.8652 43.9301 63.4576 43.932Z" fill="#9B9B9B"/>
<path d="M63.4576 56.9218C63.1493 56.9218 62.8479 56.8306 62.5916 56.6598C62.3353 56.4889 62.1355 56.2461 62.0175 55.962C61.8996 55.6778 61.8687 55.3652 61.9288 55.0636C61.989 54.762 62.1374 54.4849 62.3554 54.2674C62.5734 54.05 62.8511 53.9019 63.1535 53.8419C63.4558 53.7819 63.7692 53.8127 64.054 53.9304C64.3388 54.0481 64.5823 54.2474 64.7535 54.5031C64.9248 54.7588 65.0162 55.0594 65.0162 55.3669C65.0162 55.7793 64.852 56.1748 64.5597 56.4664C64.2674 56.758 63.8709 56.9218 63.4576 56.9218Z" fill="#9B9B9B"/>
<path d="M63.4576 70.2837C63.1493 70.2837 62.8479 70.1925 62.5916 70.0217C62.3353 69.8508 62.1355 69.608 62.0175 69.3238C61.8996 69.0397 61.8687 68.7271 61.9288 68.4254C61.989 68.1238 62.1374 67.8468 62.3554 67.6293C62.5734 67.4118 62.8511 67.2637 63.1535 67.2038C63.4558 67.1438 63.7692 67.1745 64.054 67.2922C64.3388 67.4099 64.5823 67.6092 64.7535 67.8649C64.9248 68.1206 65.0162 68.4213 65.0162 68.7288C65.0143 69.1406 64.8494 69.5349 64.5575 69.8261C64.2656 70.1173 63.8703 70.2818 63.4576 70.2837Z" fill="#9B9B9B"/>
<path d="M63.4576 83.6456C63.1493 83.6456 62.8479 83.5544 62.5916 83.3835C62.3353 83.2127 62.1355 82.9698 62.0175 82.6857C61.8996 82.4016 61.8687 82.0889 61.9288 81.7873C61.989 81.4857 62.1374 81.2086 62.3554 80.9912C62.5734 80.7737 62.8511 80.6256 63.1535 80.5656C63.4558 80.5056 63.7692 80.5364 64.054 80.6541C64.3388 80.7718 64.5823 80.9711 64.7535 81.2268C64.9248 81.4825 65.0162 81.7831 65.0162 82.0907C65.0143 82.5024 64.8494 82.8968 64.5575 83.188C64.2656 83.4792 63.8703 83.6436 63.4576 83.6456Z" fill="#9B9B9B"/>
<path d="M63.4576 97C63.1493 97 62.8479 96.9088 62.5916 96.7379C62.3353 96.5671 62.1355 96.3242 62.0175 96.0401C61.8996 95.756 61.8687 95.4434 61.9288 95.1417C61.989 94.8401 62.1374 94.563 62.3554 94.3456C62.5734 94.1281 62.8511 93.98 63.1535 93.92C63.4558 93.86 63.7692 93.8908 64.054 94.0085C64.3388 94.1262 64.5823 94.3255 64.7535 94.5812C64.9248 94.8369 65.0162 95.1375 65.0162 95.4451C65.0162 95.8575 64.852 96.253 64.5597 96.5446C64.2674 96.8362 63.8709 97 63.4576 97Z" fill="#9B9B9B"/>
<path d="M110.441 3.10983C110.133 3.10983 109.831 3.01864 109.575 2.84778C109.319 2.67693 109.119 2.43408 109.001 2.14996C108.883 1.86583 108.852 1.55319 108.912 1.25157C108.972 0.949944 109.121 0.672884 109.339 0.455425C109.557 0.237966 109.835 0.0898748 110.137 0.029878C110.439 -0.0301188 110.753 0.000673717 111.038 0.118362C111.322 0.23605 111.566 0.435347 111.737 0.691052C111.908 0.946756 112 1.24738 112 1.55492C111.998 1.9667 111.833 2.36107 111.541 2.65225C111.249 2.94343 110.854 3.10788 110.441 3.10983Z" fill="#9B9B9B"/>
<path d="M110.441 16.4643C110.132 16.4643 109.831 16.3729 109.574 16.2017C109.318 16.0305 109.118 15.7872 109 15.5027C108.883 15.2181 108.852 14.9051 108.913 14.6032C108.974 14.3014 109.123 14.0244 109.342 13.8072C109.56 13.5901 109.839 13.4426 110.142 13.3834C110.444 13.3242 110.758 13.3561 111.043 13.4749C111.327 13.5938 111.57 13.7942 111.741 14.0509C111.911 14.3076 112.001 14.6089 112 14.9168C111.998 15.3279 111.833 15.7215 111.541 16.0115C111.248 16.3015 110.853 16.4643 110.441 16.4643Z" fill="#9B9B9B"/>
<path d="M110.441 29.8261C110.133 29.8261 109.831 29.7349 109.575 29.5641C109.319 29.3932 109.119 29.1504 109.001 28.8662C108.883 28.5821 108.852 28.2695 108.912 27.9679C108.972 27.6662 109.121 27.3892 109.339 27.1717C109.557 26.9543 109.835 26.8062 110.137 26.7462C110.439 26.6862 110.753 26.717 111.038 26.8347C111.322 26.9523 111.566 27.1516 111.737 27.4073C111.908 27.663 112 27.9637 112 28.2712C112 28.4754 111.959 28.6776 111.881 28.8662C111.803 29.0549 111.688 29.2263 111.543 29.3707C111.398 29.5151 111.227 29.6296 111.038 29.7078C110.848 29.7859 110.646 29.8261 110.441 29.8261Z" fill="#9B9B9B"/>
<path d="M110.441 43.188C110.132 43.1879 109.829 43.0959 109.572 42.9237C109.315 42.7515 109.115 42.5069 108.998 42.221C108.881 41.9352 108.852 41.621 108.915 41.3186C108.977 41.0162 109.129 40.7392 109.35 40.523C109.571 40.3068 109.851 40.1611 110.156 40.1045C110.46 40.0479 110.774 40.083 111.058 40.2052C111.343 40.3275 111.584 40.5314 111.752 40.791C111.919 41.0506 112.006 41.3541 112 41.6628C111.99 42.0694 111.822 42.4562 111.531 42.741C111.24 43.0258 110.849 43.1862 110.441 43.188Z" fill="#9B9B9B"/>
<path d="M110.441 56.1779C110.133 56.1779 109.831 56.0867 109.575 55.9158C109.319 55.745 109.119 55.5021 109.001 55.218C108.883 54.9339 108.852 54.6212 108.912 54.3196C108.972 54.018 109.121 53.7409 109.339 53.5235C109.557 53.306 109.835 53.1579 110.137 53.0979C110.439 53.0379 110.753 53.0687 111.038 53.1864C111.322 53.3041 111.566 53.5034 111.737 53.7591C111.908 54.0148 112 54.3154 112 54.6229C112 55.0353 111.835 55.4308 111.543 55.7224C111.251 56.014 110.854 56.1779 110.441 56.1779Z" fill="#9B9B9B"/>
<path d="M110.441 69.5397C110.133 69.5397 109.831 69.4485 109.575 69.2777C109.319 69.1068 109.119 68.864 109.001 68.5798C108.883 68.2957 108.852 67.9831 108.912 67.6815C108.972 67.3798 109.121 67.1028 109.339 66.8853C109.557 66.6679 109.835 66.5198 110.137 66.4598C110.439 66.3998 110.753 66.4306 111.038 66.5483C111.322 66.6659 111.566 66.8652 111.737 67.1209C111.908 67.3766 112 67.6773 112 67.9848C111.998 68.3966 111.833 68.791 111.541 69.0821C111.249 69.3733 110.854 69.5378 110.441 69.5397Z" fill="#9B9B9B"/>
<path d="M110.441 82.9016C110.133 82.9016 109.831 82.8104 109.575 82.6395C109.319 82.4687 109.119 82.2258 109.001 81.9417C108.883 81.6576 108.852 81.3449 108.912 81.0433C108.972 80.7417 109.121 80.4646 109.339 80.2472C109.557 80.0297 109.835 79.8816 110.137 79.8216C110.439 79.7616 110.753 79.7924 111.038 79.9101C111.322 80.0278 111.566 80.2271 111.737 80.4828C111.908 80.7385 112 81.0391 112 81.3467C111.998 81.7585 111.833 82.1528 111.541 82.444C111.249 82.7352 110.854 82.8996 110.441 82.9016Z" fill="#9B9B9B"/>
<path d="M110.441 96.256C110.133 96.256 109.831 96.1648 109.575 95.994C109.319 95.8231 109.119 95.5803 109.001 95.2961C108.883 95.012 108.852 94.6994 108.912 94.3978C108.972 94.0961 109.121 93.8191 109.339 93.6016C109.557 93.3841 109.835 93.2361 110.137 93.1761C110.439 93.1161 110.753 93.1469 111.038 93.2645C111.322 93.3822 111.566 93.5815 111.737 93.8372C111.908 94.0929 112 94.3936 112 94.7011C112 95.1135 111.835 95.509 111.543 95.8006C111.251 96.0922 110.854 96.256 110.441 96.256Z" fill="#9B9B9B"/>
<path d="M94.7799 3.10983C94.4716 3.10983 94.1703 3.01864 93.9139 2.84778C93.6576 2.67693 93.4578 2.43408 93.3399 2.14996C93.2219 1.86583 93.191 1.55319 93.2512 1.25157C93.3113 0.949944 93.4598 0.672884 93.6777 0.455425C93.8957 0.237966 94.1735 0.0898748 94.4758 0.029878C94.7782 -0.0301188 95.0916 0.000673717 95.3764 0.118362C95.6612 0.23605 95.9046 0.435347 96.0759 0.691052C96.2471 0.946756 96.3385 1.24738 96.3385 1.55492C96.3366 1.9667 96.1717 2.36107 95.8799 2.65225C95.588 2.94343 95.1927 3.10788 94.7799 3.10983Z" fill="#9B9B9B"/>
<path d="M94.7799 16.4643C94.4713 16.4643 94.1696 16.3729 93.9132 16.2017C93.6567 16.0305 93.4569 15.7872 93.3392 15.5027C93.2214 15.2181 93.191 14.9051 93.2517 14.6032C93.3125 14.3014 93.4617 14.0244 93.6804 13.8072C93.8991 13.5901 94.1776 13.4426 94.4804 13.3834C94.7832 13.3242 95.0969 13.3561 95.3815 13.4749C95.6662 13.5938 95.9091 13.7942 96.0795 14.0509C96.2499 14.3076 96.34 14.6089 96.3385 14.9168C96.3366 15.3279 96.1715 15.7215 95.8794 16.0115C95.5873 16.3015 95.192 16.4643 94.7799 16.4643Z" fill="#9B9B9B"/>
<path d="M94.7799 29.8261C94.4716 29.8261 94.1703 29.7349 93.9139 29.5641C93.6576 29.3932 93.4578 29.1504 93.3399 28.8662C93.2219 28.5821 93.191 28.2695 93.2512 27.9679C93.3113 27.6662 93.4598 27.3892 93.6777 27.1717C93.8957 26.9543 94.1735 26.8062 94.4758 26.7462C94.7782 26.6862 95.0916 26.717 95.3764 26.8347C95.6612 26.9523 95.9046 27.1516 96.0759 27.4073C96.2471 27.663 96.3385 27.9637 96.3385 28.2712C96.3385 28.4754 96.2982 28.6776 96.2199 28.8662C96.1416 29.0549 96.0268 29.2263 95.882 29.3707C95.7373 29.5151 95.5655 29.6296 95.3764 29.7078C95.1872 29.7859 94.9846 29.8261 94.7799 29.8261Z" fill="#9B9B9B"/>
<path d="M94.7799 43.188C94.4704 43.1879 94.1678 43.0959 93.9109 42.9237C93.654 42.7515 93.4543 42.5069 93.3372 42.221C93.2202 41.9352 93.1911 41.621 93.2537 41.3186C93.3163 41.0162 93.4678 40.7392 93.6887 40.523C93.9097 40.3068 94.1902 40.1611 94.4945 40.1045C94.7988 40.0479 95.1131 40.083 95.3973 40.2052C95.6815 40.3275 95.9229 40.5314 96.0905 40.791C96.2581 41.0506 96.3445 41.3541 96.3385 41.6628C96.3288 42.0694 96.1606 42.4562 95.8695 42.741C95.5785 43.0258 95.1876 43.1862 94.7799 43.188Z" fill="#9B9B9B"/>
<path d="M94.7799 56.1779C94.4716 56.1779 94.1703 56.0867 93.9139 55.9158C93.6576 55.745 93.4578 55.5021 93.3399 55.218C93.2219 54.9339 93.191 54.6212 93.2512 54.3196C93.3113 54.018 93.4598 53.7409 93.6777 53.5235C93.8957 53.306 94.1735 53.1579 94.4758 53.0979C94.7782 53.0379 95.0916 53.0687 95.3764 53.1864C95.6612 53.3041 95.9046 53.5034 96.0759 53.7591C96.2471 54.0148 96.3385 54.3154 96.3385 54.6229C96.3385 55.0353 96.1743 55.4308 95.882 55.7224C95.5897 56.014 95.1933 56.1779 94.7799 56.1779Z" fill="#9B9B9B"/>
<path d="M94.7799 69.5397C94.4716 69.5397 94.1703 69.4485 93.9139 69.2777C93.6576 69.1068 93.4578 68.864 93.3399 68.5798C93.2219 68.2957 93.191 67.9831 93.2512 67.6815C93.3113 67.3798 93.4598 67.1028 93.6777 66.8853C93.8957 66.6679 94.1735 66.5198 94.4758 66.4598C94.7782 66.3998 95.0916 66.4306 95.3764 66.5483C95.6612 66.6659 95.9046 66.8652 96.0759 67.1209C96.2471 67.3766 96.3385 67.6773 96.3385 67.9848C96.3366 68.3966 96.1717 68.791 95.8799 69.0821C95.588 69.3733 95.1927 69.5378 94.7799 69.5397Z" fill="#9B9B9B"/>
<path d="M94.7799 82.9016C94.4716 82.9016 94.1703 82.8104 93.9139 82.6395C93.6576 82.4687 93.4578 82.2258 93.3399 81.9417C93.2219 81.6576 93.191 81.3449 93.2512 81.0433C93.3113 80.7417 93.4598 80.4646 93.6777 80.2472C93.8957 80.0297 94.1735 79.8816 94.4758 79.8216C94.7782 79.7616 95.0916 79.7924 95.3764 79.9101C95.6612 80.0278 95.9046 80.2271 96.0759 80.4828C96.2471 80.7385 96.3385 81.0391 96.3385 81.3467C96.3366 81.7585 96.1717 82.1528 95.8799 82.444C95.588 82.7352 95.1927 82.8996 94.7799 82.9016Z" fill="#9B9B9B"/>
<path d="M94.7799 96.256C94.4716 96.256 94.1703 96.1648 93.9139 95.994C93.6576 95.8231 93.4578 95.5803 93.3399 95.2961C93.2219 95.012 93.191 94.6994 93.2512 94.3978C93.3113 94.0961 93.4598 93.8191 93.6777 93.6016C93.8957 93.3841 94.1735 93.2361 94.4758 93.1761C94.7782 93.1161 95.0916 93.1469 95.3764 93.2645C95.6612 93.3822 95.9046 93.5815 96.0759 93.8372C96.2471 94.0929 96.3385 94.3936 96.3385 94.7011C96.3385 95.1135 96.1743 95.509 95.882 95.8006C95.5897 96.0922 95.1933 96.256 94.7799 96.256Z" fill="#9B9B9B"/>
</svg>
