<svg xmlns="http://www.w3.org/2000/svg" width="60" height="60" viewBox="0 0 60 60" fill="none"><path d="M43.9537 36.9081C43.9519 36.9205 43.9504 36.9327 43.9489 36.9446C43.6295 38.8283 44.0297 40.9626 44.3318 42.5738C44.3709 42.7825 44.4084 42.9824 44.4425 43.1719C44.774 45.6888 45.2671 48.1973 45.7498 50.6515C45.7916 50.9271 45.8342 51.1976 45.876 51.4634C46.1825 53.4118 46.4493 55.1075 46.0909 56.687L46.0861 56.7082L46.0819 56.7295C45.9556 57.3717 45.7218 57.8404 45.4659 58.1224C45.2393 58.372 44.9814 58.5 44.6223 58.5C43.4746 58.5 42.342 57.9118 41.0327 57.0797C38.9776 55.7594 37.2009 54.1781 35.3424 52.5241C34.501 51.7753 33.6429 51.0116 32.7346 50.2505C30.3353 48.1394 27.6463 48.2038 25.2946 48.993C23.3374 49.6498 21.4266 50.8711 19.8967 51.8488C19.6722 51.9924 19.4558 52.1307 19.2487 52.2612C17.2598 53.4409 15.5103 54.4626 13.6628 54.8962L13.6247 54.9051L13.587 54.9161C13.116 55.0529 12.6251 55.129 12.2097 55.0906C11.8257 55.0551 11.5849 54.9339 11.414 54.7358C11.282 54.5706 11.1754 54.3 11.1462 53.8394C11.1168 53.3766 11.1726 52.863 11.251 52.3C11.5535 50.7776 12.0044 49.4031 12.6115 48.014L12.6227 47.9884L12.6329 47.9624C12.7698 47.6143 12.91 47.266 13.051 46.9159C13.5512 45.6733 14.0602 44.409 14.4601 43.0586C14.4762 43.0102 14.5004 42.94 14.529 42.857C14.6002 42.6503 14.6987 42.3643 14.7676 42.1402C14.8698 41.8076 15.017 41.2846 15.017 40.7887V40.7868V40.7848V40.7829V40.781V40.779V40.7771V40.7751V40.7732V40.7713V40.7693V40.7674V40.7654V40.7635V40.7616V40.7596V40.7577V40.7557V40.7538V40.7519V40.7499V40.748V40.746V40.7441V40.7421V40.7402V40.7383V40.7363V40.7344V40.7324V40.7305V40.7286V40.7266V40.7247V40.7227V40.7208V40.7189V40.7169V40.715V40.713V40.7111V40.7092V40.7072V40.7053V40.7033V40.7014V40.6994V40.6975V40.6956V40.6936V40.6917V40.6897V40.6878V40.6859V40.6839V40.682V40.68V40.6781V40.6762V40.6742V40.6723V40.6703V40.6684V40.6665V40.6645V40.6626V40.6606V40.6587V40.6567V40.6548V40.6529V40.6509V40.649V40.647V40.6451V40.6432V40.6412V40.6393V40.6373V40.6354V40.6335V40.6315V40.6296V40.6276V40.6257V40.6238V40.6218V40.6199V40.6179V40.616V40.6141V40.6121V40.6102V40.6082V40.6063V40.6043V40.6024V40.6005V40.5985V40.5966V40.5946V40.5927V40.5908V40.5888V40.5869V40.5849V40.583V40.5811V40.5791V40.5772V40.5752V40.5733V40.5714V40.5694V40.5675V40.5655V40.5636V40.5617V40.5597V40.5578V40.5558V40.5539V40.5519V40.55V40.5481V40.5461V40.5442V40.5422V40.5403V40.5384V40.5364V40.5345V40.5325V40.5306V40.5287V40.5267V40.5248V40.5228V40.5209V40.519V40.517V40.5151V40.5131V40.5112V40.5093V40.5073V40.5054V40.5034V40.5015V40.4995V40.4976V40.4957V40.4937V40.4918V40.4898V40.4879V40.486V40.484V40.4821V40.4801V40.4782V40.4763V40.4743V40.4724V40.4704V40.4685V40.4666V40.4646V40.4627V40.4607V40.4588V40.4568V40.4549V40.453V40.451V40.4491V40.4471V40.4452V40.4433V40.4413V40.4394V40.4374V40.4355V40.4336V40.4316V40.4297V40.4277V40.4258V40.4239V40.4219V40.42V40.418V40.4161V40.4142V40.4122V40.4103V40.4083V40.4064V40.4044V40.4025V40.4006V40.3986V40.3967V40.3947V40.3928V40.3909V40.3889V40.387V40.385V40.3831V40.3812V40.3792V40.3773V40.3753V40.3734V40.3715V40.3695V40.3676V40.3656V40.3637V40.3617V40.3598V40.3579V40.3559V40.354V40.352V40.3501V40.3482V40.3462V40.3443V40.3423V40.3404V40.3385V40.3365V40.3346V40.3326V40.3307V40.3288V40.3268V40.3249V40.3229V40.321V40.3191V40.3171V40.3152V40.3132V40.3113V40.3093V40.3074V40.3055V40.3035V40.3016V40.2996V40.2977V40.2958V40.2938V40.2919V40.2899V40.288V40.2861V40.2841V40.2822V40.2802V40.2783V40.2764V40.2744V40.2725V40.2705V40.2686V40.2667V40.2647V40.2628V40.2608V40.2589V40.2569V40.255V40.2531V40.2511V40.2492V40.2472V40.2453V40.2434V40.2414V40.2395V40.2375V40.2356V40.2337V40.2317V40.2298V40.2278V40.2259V40.224V40.222V40.2201V40.2181V40.2162V40.2142V40.2123V40.2104V40.2084V40.2065V40.2045V40.2026V40.2007V40.1987V40.1968V40.1948V40.1929V40.191V40.189V40.1871V40.1851V40.1832V40.1813V40.1793V40.1774V40.1754V40.1735V40.1716V40.1696V40.1677V40.1657V40.1638V40.1618V40.1599V40.158V40.156V40.1541V40.1521V40.1502V40.1483V40.1463V40.1444V40.1424V40.1405V40.1386V40.1366V40.1347V40.1327V40.1308V40.1289V40.1269V40.125V40.123V40.1211V40.1191V40.1172V40.1153V40.1133V40.1114V40.1094V40.1075V40.1056V40.1036V40.1017V40.0997V40.0978V40.0959V40.0939V40.092V40.09V40.0881V40.0862V40.0842V40.0823V40.0803V40.0784V40.0765V40.0745V40.0726V40.0706V40.0687V40.0667V40.0648V40.0629V40.0609V40.059V40.057V40.0551V40.0532V40.0512V40.0493V40.0473V40.0454V40.0435V40.0415V40.0396V40.0376V40.0357V40.0338V40.0318V40.0299V40.0279V40.026V40.0241V40.0221V40.0202V40.0182V40.0163V40.0143V40.0124V40.0105V40.0085V40.0066V40.0046V40.0027V40.0008V39.9988V39.9969V39.9949V39.993V39.9911V39.9891V39.9872V39.9852V39.9833V39.9814V39.9794V39.9775V39.9755V39.9736V39.9716V39.9697V39.9678V39.9658V39.9639V39.9619V39.96V39.9581V39.9561V39.9542V39.9522V39.9503V39.9484V39.9464V39.9445V39.9425V39.9406V39.9387V39.9367V39.9348V39.9328V39.9309V39.929V39.927V39.9251V39.9231V39.9212V39.9192V39.9173V39.9154V39.9134V39.9115V39.9095V39.9076V39.9057V39.9037V39.9018V39.8998V39.8979V39.896V39.894V39.8921V39.8901V39.8882V39.8863V39.8843V39.8824V39.8804V39.8785V39.8766V39.8746V39.8727V39.8707V39.8688V39.8668V39.8649V39.863V39.861V39.8591V39.8571V39.8552V39.8533V39.8513V39.8494V39.8474V39.8455V39.8436V39.8416V39.8397V39.8377V39.8358V39.8339V39.8319V39.83V39.828V39.8261V39.8242V39.8222V39.8203V39.8183V39.8164V39.8144V39.8125V39.8106V39.8086V39.8067V39.8047V39.8028V39.8009V39.7989V39.797V39.795V39.4638V39.4628V39.4619V39.4609V39.4599V39.459V39.458V39.457V39.456V39.4551V39.4541V39.4531V39.4522V39.4512V39.4502V39.4493V39.4483V39.4473V39.4464V39.4454V39.4444V39.4435V39.4425V39.4415V39.4406V39.4396V39.4386V39.4377V39.4367V39.4357V39.4348V39.4338V39.4328V39.4319V39.4309V39.43V39.429V39.428V39.4271V39.4261V39.4252V39.4242V39.4232V39.4223V39.4213V39.4204V39.4194V39.4185V39.4175V39.4165V39.4156V39.4146V39.4137V39.4127V39.4118V39.4109V39.4099V39.409V39.408V39.4071V39.4061V39.4052V39.4042V39.4033V39.4024V39.4014V39.4005V39.3995V39.3986V39.3977V39.3967V39.3958V39.3949V39.3939V39.393V39.3921V39.3911V39.3902V39.3893V39.3884V39.3874V39.3865V39.3856V39.3847V39.3838V39.3828V39.3819V39.381V39.3801V39.3792V39.3783V39.3774V39.3765V39.3755V39.3746V39.3737V39.3728V39.3719V39.371V39.3701V39.3692V39.3683V39.3674V39.3666V39.3657V39.3648V39.3639V39.363V39.3621V39.3612V39.3604V39.3595V39.3586V39.3577V39.3568V39.356V39.3551V39.3542V39.3534V39.3525V39.3516V39.3508V39.3499V39.349V39.3482V39.3473V39.3465V39.3456V39.3448V39.3439V39.3431V39.3422V39.3414V39.3406V39.3397V39.3389V39.338V39.3372V39.3364V39.3356V39.3347V39.3339V39.3331V39.3323V39.3314V39.3306V39.3298V39.329V39.3282V39.3274V39.3266V39.3258V39.325V39.3242V39.3234V39.3226V39.3218V39.321V39.3202V39.3194V39.3187V39.3179V39.3171V39.3163V39.3156V39.3148V39.314V39.3132V39.3125V39.3117V39.311V39.3102V39.3095V39.3087V39.308V39.3072V39.3065V39.3057V39.305V39.3043V39.3035V39.3028V39.3021V39.3014V39.3006V39.2999V39.2992V39.2985V39.2982V39.2978V39.2972V39.2971V39.2964V39.2963V39.2957V39.2953V39.295V39.2944V39.2943V39.2936V39.2934V39.2929V39.2925V39.2922V39.2916V39.2915V39.2908V39.2907V39.2901V39.2898V39.2895V39.2889V39.2888V39.2881V39.288V39.2875V39.2871V39.2868V39.2862V39.2861V39.2855V39.2853V39.2848V39.2845V39.2842V39.2836V39.2835V39.2829V39.2828V39.2822V39.2819V39.2816V39.2811V39.281V39.2803V39.2803V39.2797V39.2795V39.2791V39.2787V39.2785V39.2779V39.2772V39.2771V39.2766V39.2763V39.276V39.2755V39.2754V39.2748V39.2747V39.2742V39.2739V39.2736V39.2732V39.273V39.2724V39.2724V39.2718V39.2717V39.2712V39.2709V39.2706V39.2702V39.2701V39.2695V39.2689V39.2688V39.2684V39.2681V39.2678V39.2674V39.2672V39.2667V39.2661V39.266V39.2656V39.2653V39.265V39.2646V39.2645V39.2639V39.2634V39.2633V39.2629V39.2626V39.2624V39.262V39.2618V39.2613V39.2608V39.2607V39.2603V39.2601V39.2598V39.2595V39.2593V39.2588V39.2588V39.2583V39.2582V39.2578V39.2576V39.2573V39.257V39.2568V39.2565V39.2563V39.2559V39.2558V39.2554V39.2553V39.2549V39.2547V39.2544V39.2542V39.2539V39.2536V39.2535V39.2531V39.253V39.2526V39.2525V39.2521V39.252V39.2517V39.2515V39.2512V39.251V39.2508V39.2505V39.2504V39.25V39.2495V39.2495V39.2491V39.249V39.2487V39.2485V39.2483V39.248V39.2479V39.2475V39.2475V39.2471V39.2467V39.2466V39.2463V39.2461V39.2459V39.2457V39.2455V39.2453V39.2451V39.2448V39.2447V39.2444V39.244V39.244V39.2436V39.2436V39.2433V39.2432V39.2429V39.2427V39.2426V39.2424V39.2422V39.242V39.2419V39.2416V39.2412V39.2409V39.2408V39.2406V39.2405V39.2403V39.2401V39.2399V39.2398V39.2396V39.2394V39.2393V39.2391V39.239V39.2387V39.2384V39.2381V39.2381V39.2379V39.2378V39.2376V39.2375V39.2373V39.2372V39.237V39.2369V39.2368V39.2366V39.2365V39.2363V39.2362V39.236V39.236V39.2358V39.2355V39.2353V39.2352V39.235V39.235V39.2348V39.2347V39.2346V39.2345V39.2344V39.2343V39.2341V39.234V39.2339V39.2338V39.2337V39.2336V39.2335V39.2334V39.2333V39.2332V39.2331V39.233V39.2328V39.2326V39.2324V39.2322V39.2321V39.2321V39.2319V39.2319V39.2318V39.2317V39.2316V39.2316V39.2315V39.2314V39.2314V39.2313V39.2312V39.2312V39.2311V39.231V39.231V39.2309V39.2309V39.2308V39.2308V39.2307V39.2307V39.2306V39.2305V39.2304V39.2303V39.2302V39.2301V39.2301V39.23V39.2299V39.2299V39.2298V39.2298V39.2297V39.2297V39.2296H15.0156C15.0107 39.1047 14.9921 38.9755 14.9562 38.845C14.9288 38.7456 14.8938 38.6542 14.8541 38.5707V38.0469L14.034 37.6299C13.9665 37.5956 13.9337 37.571 13.914 37.555C13.8972 37.5414 13.8809 37.5268 13.8531 37.4996C13.5442 37.0873 13.1379 36.7607 12.8462 36.5431C12.5867 36.3495 12.2951 36.156 12.0853 36.0168C12.0197 35.9732 11.962 35.9349 11.9159 35.9036C11.1677 35.3964 10.3811 34.8912 9.61334 34.3981L9.60479 34.3926C8.83325 33.897 8.08054 33.4135 7.36995 32.9321C7.26014 32.8539 7.15193 32.7771 7.04525 32.7013C5.53351 31.6276 4.32954 30.7725 3.2465 29.5335L3.17949 29.4568L3.10274 29.3899C2.10292 28.5184 1.5 27.5707 1.5 26.5459C1.5 25.6312 2.12609 24.6996 3.52555 23.5904C4.5181 22.8367 5.50996 22.558 6.99167 22.4073L7.00001 22.4064L7.00833 22.4055C9.13991 22.1647 11.244 22.083 13.3773 22.021C13.6719 22.0125 13.9673 22.0043 14.2636 21.9961C16.078 21.9458 17.9229 21.8947 19.7669 21.7523C20.677 21.7449 21.6896 21.5749 22.4806 21.4173C23.1579 21.3855 23.7824 21.1728 24.191 21.0336C24.2142 21.0257 24.2366 21.0181 24.2584 21.0107L24.9179 20.7871L25.1727 20.1391C25.874 18.3562 26.2218 16.5874 26.5413 14.9628L26.5447 14.9454C26.7013 14.307 26.8453 13.6784 26.9873 13.0585C27.4617 10.9876 27.9138 9.01412 28.7375 7.09932L28.7579 7.05208L28.7749 7.00356C29.5299 4.8537 30.6822 3.02992 32.2728 1.9516L32.2929 1.93794L32.3126 1.92365C32.9983 1.42552 33.7735 1.35452 34.4816 1.7775C35.344 2.46613 35.8725 3.67378 36.357 5.15199C37.2429 7.85483 37.6092 10.646 37.9872 13.5274C38.072 14.1736 38.1574 14.8243 38.2494 15.4796C38.2585 15.5543 38.268 15.6372 38.2784 15.7269C38.3488 16.3378 38.4557 17.266 38.7113 18.0889C38.9917 18.9922 39.6354 20.369 41.1974 20.722L41.2132 20.7255L41.2291 20.7288C42.3621 20.9592 43.6013 20.7315 44.3896 20.5719C44.8846 20.5018 45.389 20.4646 45.9524 20.4237L45.9752 20.422C46.5132 20.3829 47.1073 20.3398 47.7108 20.2548C50.1454 20.09 52.5669 19.9448 54.8072 20.2435C56.3925 20.5427 57.6702 21.199 58.2019 22.6049L58.2273 22.6719L58.2589 22.7361C58.6789 23.5904 58.5418 24.4673 57.8905 25.4939C57.2181 26.5537 56.1234 27.5433 55.0979 28.3455L55.0782 28.3609L55.0591 28.377C53.2876 29.8606 51.4476 31.0158 49.513 32.2306C48.4981 32.8679 47.4571 33.5215 46.3862 34.2475C46.3143 34.2963 46.2384 34.3455 46.1588 34.3972C45.801 34.6295 45.3661 34.9118 44.8556 35.431L44.7589 35.5294L44.7239 35.565L44.6927 35.5966L44.6616 35.6283L44.6266 35.6639L44.5299 35.7623C44.2671 36.0295 44.1148 36.3205 44.0315 36.5745C43.9907 36.6991 43.9671 36.8124 43.9537 36.9081Z" stroke="#FFC3CE" stroke-width="3"></path></svg>