<svg width="65" height="36" viewBox="0 0 65 36" fill="none" xmlns="http://www.w3.org/2000/svg">
<path d="M6.30984 28.5505C6.30972 28.5868 6.30972 28.5868 6.30984 28.5505V28.5505ZM0.406751 23.6784C0.211937 24.0766 0.133197 24.4751 0.441357 24.8745C0.363476 25.0193 0.28572 25.1279 0.169151 25.2725C-0.0252908 25.562 0.0124139 25.8521 0.127488 26.1423C0.165936 26.2149 0.320319 26.324 0.359139 26.2879C0.707726 26.1801 1.17152 26.3262 1.40491 25.9644C1.52086 26.0009 1.59811 26.0374 1.71406 26.0739C1.44186 26.4719 0.93789 26.7606 1.12948 27.3048C1.3615 27.3416 1.55484 27.3784 1.74829 27.3789C1.86362 27.5966 1.90169 27.7779 1.785 27.9589C1.78475 28.0314 1.74569 28.14 1.78426 28.1763C1.9384 28.358 2.13123 28.5397 2.32419 28.6852C2.44002 28.758 2.6331 28.8672 2.7493 28.8313C3.67813 28.7612 4.64577 28.6549 5.57459 28.5848C5.80686 28.5492 6.03901 28.5498 6.27115 28.5504C6.23333 28.2966 6.42691 28.2608 6.62037 28.2613C6.65905 28.2614 6.69737 28.3703 6.77438 28.4792C6.61949 28.5151 6.4646 28.5509 6.27103 28.5867C6.42592 28.5508 6.61949 28.5151 6.77438 28.4792L7.62558 28.4814C7.43175 28.5897 7.35425 28.6257 7.23805 28.6616C7.31531 28.6981 7.39257 28.7345 7.46982 28.771C7.39108 29.1695 7.27352 29.6041 7.62062 29.9312C7.30985 30.2929 7.23123 30.6551 7.42332 31.0543C8.00381 31.0196 8.39072 31.0206 8.66118 31.13C8.62224 31.2024 8.58331 31.2748 8.54437 31.3472C8.50531 31.4558 8.42768 31.5281 8.38861 31.6367C8.27167 31.8901 8.34856 32.0353 8.65796 32.0724C8.69665 32.0725 8.73534 32.0726 8.81273 32.0728C9.04487 32.0734 9.12188 32.1823 9.08245 32.3997C9.04338 32.5083 9.0042 32.6532 9.08146 32.6896C9.2356 32.8713 9.42831 33.0892 9.66008 33.1986C9.85317 33.3078 10.0853 33.3084 10.3176 33.2728C11.1691 33.1662 11.9821 33.0234 12.8338 32.8806C13.2597 32.8092 13.6858 32.6653 14.1105 32.9201C14.1109 32.8114 14.1498 32.739 14.15 32.7028C14.3437 32.6308 14.5759 32.5951 14.7696 32.5231C15.4669 32.2712 16.1642 32.0193 16.8617 31.7312C17.9464 31.3353 19.0312 30.9031 20.116 30.471C20.4259 30.3631 20.7748 30.1827 21.0462 30.0022C21.3565 29.7856 21.705 29.714 22.1307 29.6788C22.0916 29.7875 22.0914 29.8599 22.0526 29.8961C21.897 30.1132 21.6642 30.33 21.5472 30.5834C21.4302 30.8731 21.429 31.1993 21.3892 31.5254C21.3495 31.8153 21.2712 32.105 21.2315 32.3949C21.1923 32.5398 21.1917 32.721 21.1912 32.866C21.4618 32.9392 21.6938 32.976 22.0031 33.0493C22.0025 33.2305 22.0018 33.4117 21.9625 33.5929C21.9231 33.8102 22 33.9554 22.1932 34.0284C22.4638 34.1016 22.4632 34.2828 22.4237 34.5002C22.4237 34.5002 22.4238 34.4639 22.4625 34.464C22.54 34.428 22.6175 34.392 22.6564 34.3558C22.6562 34.3921 22.6561 34.4283 22.656 34.4646C22.5786 34.4644 22.5012 34.4641 22.4237 34.5002C22.4623 34.5365 22.5395 34.573 22.5393 34.6455C22.6918 35.2983 23.1946 35.3721 23.7362 35.3735C24.4328 35.339 25.1294 35.3046 25.8259 35.2702C26.4451 35.2355 27.0651 34.9472 27.7226 35.0213C27.8387 35.0216 27.955 34.9495 28.0712 34.9135C28.0713 34.8773 28.0713 34.8773 28.0715 34.841L27.7619 34.8402C27.7621 34.804 27.7621 34.804 27.7622 34.7677C28.072 34.696 28.4205 34.5882 28.7303 34.5165C28.5751 34.6611 28.3816 34.6606 28.3035 34.8779C28.4197 34.8419 28.4971 34.8421 28.5746 34.8061C29.1556 34.6264 29.7367 34.4104 30.2789 34.2306C30.705 34.0867 31.1313 33.9066 31.5189 33.6901C32.2554 33.2933 33.1075 33.0418 33.8055 32.5724C33.9993 32.4642 34.1537 32.5733 34.153 32.7908C34.1526 32.8995 34.1136 33.0082 34.0745 33.1168L34.1132 33.1169C34.1912 32.9359 34.2691 32.7911 34.3858 32.6102C34.4629 32.6829 34.54 32.7555 34.6172 32.8282C34.7724 32.6837 34.9278 32.5028 35.0444 32.3582C35.0827 32.467 35.1209 32.6121 35.0821 32.6482C34.8882 32.7564 35.0032 33.083 34.7322 33.1185C34.7316 33.2997 34.7696 33.5173 34.7688 33.7348C34.924 33.6264 35.0404 33.518 35.1957 33.3734C35.233 33.7722 35.0389 33.9529 34.8837 34.0975C34.9603 34.3152 35.0756 34.5329 35.1137 34.7143C35.1509 35.1493 35.1895 35.1857 35.6151 35.1868C35.7311 35.1871 35.8473 35.1511 36.0021 35.1515C36.1182 35.1518 36.2731 35.116 36.3502 35.1887C36.6205 35.3343 36.8915 35.2988 37.2013 35.2271C37.3563 35.155 37.5113 35.0829 37.6662 35.0471C37.8986 34.9752 38.1307 34.9758 38.3235 35.1575C38.3621 35.1939 38.517 35.158 38.6329 35.1946C38.5948 35.0495 38.5563 34.9769 38.5179 34.9043C39.0993 34.5796 39.0993 34.5796 39.4463 34.943C39.5238 34.9069 39.6013 34.8709 39.6788 34.8348C39.5247 34.6532 39.6796 34.6174 39.8345 34.5815C40.0667 34.5459 40.2608 34.3651 40.4923 34.547C40.5309 34.5833 40.6472 34.5111 40.686 34.475C40.9187 34.3306 41.1513 34.1862 41.384 34.0418C41.5003 33.9697 41.6167 33.8612 41.8101 33.898C41.8873 33.9344 42.0036 33.8622 42.0811 33.8262C42.5462 33.6099 42.9725 33.3935 43.4375 33.1773C43.8251 32.9971 44.251 32.8894 44.6001 32.6366C45.1432 32.2393 45.7246 31.9146 46.3061 31.5899C46.7325 31.3735 47.1589 31.1209 47.5854 30.8683C47.6242 30.8322 47.6629 30.8323 47.7403 30.8325C47.8177 30.8327 48.3984 30.7254 48.476 30.6532C48.67 30.5087 49.0182 30.5096 49.0193 30.1834C49.2899 30.2566 49.2521 30.0027 49.3298 29.8942C49.5622 29.8223 49.8331 29.823 49.9882 29.7147C50.4148 29.4258 50.8028 29.1006 51.191 28.7392C51.4625 28.5224 51.657 28.233 51.8901 27.9436C52.0455 27.7628 52.2008 27.6182 52.3946 27.51C52.5497 27.4016 52.7047 27.3295 52.8599 27.2212C53.0538 27.0767 53.2479 26.896 53.4418 26.7515C53.752 26.5711 54.0236 26.3543 54.0249 25.9556C54.2959 25.9201 54.5282 25.8845 54.4516 25.6305C54.6844 25.4499 54.8398 25.2691 55.0337 25.1246C55.1501 25.0524 55.2664 24.9802 55.3441 24.8717C55.4606 24.7633 55.6931 24.6551 55.6935 24.5464C55.6946 24.2202 56.0046 24.076 56.1988 23.859C56.6647 23.3891 57.1691 22.9917 57.5963 22.5216C58.2562 21.8709 58.9163 21.1839 59.5764 20.497C60.081 20.0271 60.5855 19.5935 61.0901 19.1236C61.6335 18.6176 62.1383 18.0752 62.6819 17.5329C63.3802 16.991 64.04 16.3766 64.6612 15.762C64.5461 15.4718 64.4696 15.2178 64.4315 15.0365C64.2384 14.9273 64.0451 14.8905 64.0455 14.7818C64.046 14.6368 64.1625 14.4921 64.2016 14.3835C63.8926 14.2377 63.6221 14.1283 63.3129 14.0188C63.2354 14.0548 63.0804 14.1269 62.9254 14.199C62.888 13.8364 63.2362 13.8373 63.4303 13.6566C63.1984 13.5835 62.9661 13.6192 62.8117 13.51C62.6573 13.4009 62.542 13.1831 62.4263 13.0741C62.1165 13.1458 61.8454 13.2176 61.5743 13.2894C61.4194 13.3252 61.2642 13.4698 61.1102 13.2519C61.1103 13.2157 60.9554 13.2515 60.8392 13.2874C60.7618 13.2872 60.6843 13.3233 60.6069 13.3231C60.5691 13.0693 60.9948 13.0341 60.8798 12.7439C60.7634 12.8161 60.647 12.9245 60.5305 13.0329C60.4921 12.9603 60.4537 12.8878 60.4925 12.8516C60.6097 12.5257 60.6882 12.1997 60.844 11.8739C60.8829 11.8378 60.9991 11.8018 61.0379 11.7657C60.9997 11.6206 61.0002 11.4756 60.9618 11.3668C60.9623 11.2218 60.8851 11.1853 60.7302 11.2212C60.6528 11.221 60.5753 11.257 60.5753 11.257C60.4215 10.9667 60.2675 10.7488 60.1521 10.5673C60.269 10.3139 60.3471 10.0966 60.4253 9.87933C60.1165 9.66106 59.8464 9.44288 59.5763 9.22471C59.4989 9.22451 59.3827 9.26046 59.2665 9.2964C59.2668 9.22391 59.267 9.15142 59.2673 9.07893C59.4239 8.53566 59.3092 8.13667 58.7297 7.88145C58.6524 7.845 58.4982 7.69962 58.537 7.66348C58.6539 7.41006 58.422 7.33697 58.3064 7.19169C57.9213 6.68326 57.2253 6.53648 56.6825 6.86128C56.5662 6.93347 56.4114 6.93307 56.2954 6.93277C56.1789 7.04121 56.0622 7.22213 55.9071 7.33046C55.752 7.4388 55.5198 7.4382 55.4429 7.29302C55.3663 7.07535 55.173 7.0386 55.0185 6.96571C55.2518 6.60386 55.6766 6.85868 55.8706 6.67795C55.8326 6.49663 55.7944 6.35155 55.7561 6.24272C55.6397 6.31491 55.5621 6.3872 55.4459 6.42314C54.5545 6.85577 53.7403 7.3611 53.0031 7.97536C51.5285 9.24012 50.0925 10.5412 48.6564 11.8423C48.5788 11.9146 48.5013 11.9507 48.4237 12.023C48.3851 11.9866 48.3851 11.9866 48.3465 11.9503C48.4243 11.8417 48.5022 11.697 48.5799 11.5884C49.2019 10.7202 49.8625 9.88822 50.4459 9.01985C50.8348 8.44093 51.185 7.86192 51.5353 7.24665C51.6909 6.99334 51.808 6.70368 51.7704 6.37738C51.6159 6.30449 51.5002 6.19545 51.3071 6.08622C51.462 6.05037 51.5395 6.01433 51.6945 5.94224C51.3468 5.79636 51.1536 5.72337 50.9218 5.61403L50.9233 5.17909C50.8072 5.17879 50.6912 5.17849 50.5751 5.17819C50.6921 4.88853 50.6921 4.88853 51.3114 4.81764C51.041 4.70821 50.8865 4.63532 50.6933 4.56233C50.8877 4.27287 50.6561 4.12729 50.3856 4.01786C50.1925 3.90862 49.9994 3.79938 49.845 3.69025C49.69 3.76234 49.535 3.83443 49.3413 3.90641C49.3424 3.58021 49.3433 3.32649 49.3442 3.07278C49.3453 2.74658 49.1526 2.52861 48.8825 2.31044C48.7668 2.2014 48.5734 2.16466 48.3802 2.09167C48.4193 1.98303 48.4584 1.8744 48.4974 1.76576C48.3814 1.76546 48.2653 1.76516 48.1491 1.8011C47.9191 1.18434 47.8805 1.14799 47.2226 1.18254C47.1839 1.18244 47.1065 1.18224 47.1067 1.14599C46.9912 0.964467 46.8749 1.03666 46.7199 1.10875C46.4486 1.25303 46.2159 1.3974 45.9445 1.57792C45.8674 1.46899 45.7516 1.3962 45.6746 1.28727C45.5203 1.14188 45.4048 0.996604 45.2505 0.851222C45.0179 0.995602 44.7855 1.06749 44.5915 1.21197C42.6524 2.54802 40.9061 4.0658 39.1598 5.58358C38.3835 6.30648 37.5685 7.02927 36.7923 7.71592C36.7147 7.78821 36.5985 7.82416 36.4434 7.93249C36.4054 7.71492 36.3672 7.56984 36.3677 7.42486C36.4073 7.17125 36.2917 7.02597 36.0598 6.95288C35.9439 6.91633 35.867 6.77115 35.7897 6.73471C35.7502 6.98832 35.7502 6.98832 35.3634 6.95107C35.4423 6.51634 35.4824 6.0815 35.5614 5.61051C35.484 5.61031 35.4067 5.61011 35.3292 5.64616C35.2517 5.6822 35.174 5.75449 35.1355 5.71814C34.749 5.57216 34.4773 5.82518 34.1674 5.93311C34.0124 6.0052 33.896 6.11363 33.7412 6.11323C33.7808 5.85962 33.859 5.6061 33.8211 5.38854C33.7839 4.9535 33.8242 4.48241 33.7096 4.04717L33.7097 4.01093C33.7489 3.86605 33.8267 3.75752 33.8659 3.61264C33.4407 3.46655 33.092 3.61063 32.8209 3.68242C32.6279 3.57318 32.4348 3.46395 32.2417 3.35471C32.3967 3.28262 32.5129 3.24668 32.5904 3.21063C32.4363 3.02901 32.2821 2.84739 32.1279 2.70201C32.0507 2.62932 31.8962 2.55643 31.7801 2.55613C31.6254 2.55572 31.4317 2.62771 31.2767 2.6998C30.7729 2.91597 30.2691 3.16838 29.7652 3.42079C29.689 3.09439 29.9996 2.76899 29.6136 2.51427C29.7686 2.44218 29.9236 2.37009 30.0399 2.2979C30.04 2.26166 30.0015 2.22531 30.0015 2.22531C29.6139 2.40554 29.2267 2.51327 28.8777 2.72984C28.1412 3.12663 27.4046 3.55966 26.7068 3.95656C26.4742 4.10093 26.2423 4.02784 26.1264 3.95505C25.6634 3.5914 25.1605 3.55385 24.5416 3.51601C24.6594 3.00888 24.4676 2.53719 24.6241 2.03017C24.7802 1.63187 24.6261 1.45025 24.1619 1.4128C24.0458 1.4125 23.8912 1.37586 23.775 1.4118C23.6202 1.4114 23.5043 1.37485 23.3886 1.26582C23.1573 1.0115 22.926 0.757186 22.6946 0.539118C22.6175 0.466428 22.5015 0.42988 22.3855 0.42958C22.1532 0.465226 21.921 0.464625 21.6885 0.572757C21.4173 0.68079 21.1459 0.861316 20.8357 1.04174C20.9138 0.824468 20.953 0.679591 20.9923 0.498464C20.6047 0.714933 20.5644 1.18602 20.1766 1.43873C20.216 1.22136 20.294 1.04033 20.2948 0.822865C20.2954 0.641642 20.2186 0.460218 20.142 0.242546C20.3743 0.2069 20.6065 0.171258 20.8001 0.135516C20.5297 0.0260811 20.5297 0.0260811 20.2971 0.134214C19.8709 0.314336 19.4448 0.458214 19.0957 0.711027C18.1651 1.32478 17.2341 2.01104 16.3033 2.66104C16.1482 2.76937 15.9929 2.91395 15.7602 3.09458C15.9537 3.05883 16.0311 3.05903 16.1085 3.05923C16.2243 3.13202 16.3403 3.16857 16.4948 3.24146C16.417 3.34999 16.3392 3.49477 16.2227 3.60321C15.951 3.85622 15.5249 4.0001 15.4462 4.39859C15.446 4.43484 15.4074 4.43474 15.3687 4.43464C14.6319 4.90392 13.9336 5.44579 13.351 6.09669C13.1957 6.27752 13.1566 6.38615 13.1947 6.56748C13.9687 6.49699 14.0847 6.53353 14.2774 6.7515C14.0836 6.85974 13.7738 6.93143 13.6571 7.11235C13.5404 7.29328 13.4626 7.40181 13.2301 7.50994C13.0751 7.58203 13.0358 7.76316 13.1514 7.90844C13.2283 8.05362 13.3833 7.98153 13.4996 7.90934C13.6546 7.83725 13.7711 7.72882 13.9259 7.69297C13.9648 7.65683 14.0806 7.72962 14.1193 7.72972C14.0803 7.80211 14.0801 7.8746 14.0413 7.91074C13.9636 7.98303 13.8474 8.01898 13.7698 8.09127C13.6922 8.16356 13.5372 8.23564 13.5369 8.30813C13.5748 8.56195 13.3812 8.59769 13.2262 8.66978C13.1098 8.74197 12.9935 8.81416 12.8772 8.88635C12.954 9.06777 12.9922 9.21285 13.0304 9.35794C12.9915 9.39408 12.9526 9.46647 12.9525 9.50271C10.895 11.4909 8.87643 13.4429 6.819 15.4311C5.92626 16.2624 5.03352 17.0937 4.17935 17.9614C3.7912 18.3228 3.44162 18.7206 3.24643 19.2276C3.16843 19.4086 3.05161 19.6257 2.89635 19.7703C2.31401 20.3487 1.69297 20.9271 1.11063 21.5055C0.761171 21.867 0.411832 22.1923 0.178074 22.6629C0.0999538 22.8802 0.0606456 23.0613 0.253484 23.243C0.601944 23.1714 0.562512 23.3888 0.406751 23.6784ZM21.5027 32.2869C21.5793 32.5045 21.6561 32.6859 21.6942 32.8673C21.3071 32.9025 21.2686 32.8662 21.5027 32.2869ZM62.2306 13.726C62.2307 13.6897 62.3469 13.6538 62.3857 13.6177C62.4242 13.6903 62.5013 13.7629 62.5012 13.7992C62.4621 13.9078 62.3844 14.0164 62.3067 14.0886C62.268 14.0885 62.2295 14.0522 62.2295 14.0522C62.2298 13.9435 62.1915 13.8346 62.2306 13.726ZM60.1167 9.58856C59.9612 9.80563 60.27 10.0239 59.96 10.1681C59.8446 9.95031 59.7292 9.76879 59.5752 9.55092C59.7686 9.55142 59.8846 9.58796 60.1167 9.58856ZM59.038 8.2447C59.0375 8.38968 59.0757 8.53476 59.0753 8.64349C59.0366 8.64339 58.9978 8.67954 58.9978 8.67954C58.9207 8.60685 58.8048 8.53406 58.6504 8.42492C58.8054 8.35283 58.883 8.31679 59.038 8.2447ZM58.6488 8.8961C58.803 9.07773 58.841 9.25906 58.6472 9.36729C58.6085 9.36719 58.57 9.33084 58.5313 9.33074C58.5319 9.14952 58.6096 9.04098 58.6488 8.8961ZM57.185 7.00756C57.4564 6.86329 57.8044 6.90043 58.0747 7.08236C57.8811 7.1181 57.6875 7.15384 57.4938 7.22583C57.3001 7.29782 57.1064 7.36981 56.9513 7.47815C56.9127 7.4418 56.8741 7.40546 56.8356 7.36911C56.952 7.26068 57.03 7.07965 57.185 7.00756ZM53.8549 7.79634C53.9712 7.72415 54.0875 7.65196 54.1265 7.57957C54.3213 7.18138 54.7466 7.25497 55.1727 7.11109C54.9393 7.47294 54.9377 7.94412 54.3193 7.76129C54.242 7.72485 54.1643 7.83339 54.0868 7.86943C53.6602 8.15829 53.2335 8.48339 52.8456 8.77235C52.807 8.736 52.807 8.736 52.7684 8.69966C53.1565 8.37445 53.5057 8.08539 53.8549 7.79634ZM49.9516 29.0984C49.9514 29.1709 49.9511 29.2434 49.951 29.2797C49.9117 29.4608 49.8345 29.3881 49.6413 29.3151C49.7578 29.2067 49.8353 29.1706 49.9516 29.0984ZM51.3835 6.37638C51.6147 6.66694 51.5751 6.92055 51.1091 7.42678C51.2263 7.10087 51.3049 6.73863 51.3835 6.37638ZM50.1532 4.08974C50.2306 4.08994 50.2689 4.19878 50.3462 4.23522C50.2687 4.27127 50.1909 4.3798 50.1522 4.3797C50.0363 4.34316 49.9591 4.27047 49.7659 4.19748C49.9596 4.12549 50.0371 4.08944 50.1532 4.08974ZM48.8425 2.67279C49.0747 2.67339 49.0354 2.85451 48.9961 3.03563L48.6479 3.03473C48.5325 2.81696 48.6104 2.67219 48.8425 2.67279ZM48.6076 3.50582L48.6462 3.50592C48.6073 3.57831 48.6069 3.68704 48.568 3.75943C48.5293 3.75933 48.5293 3.75933 48.4907 3.72299C48.5295 3.68684 48.5686 3.57821 48.6076 3.50582ZM47.2994 1.36396C47.2988 1.54519 47.337 1.69027 47.298 1.76266C47.1425 1.97972 46.91 2.08786 46.5232 2.05061C46.7949 1.7976 47.0277 1.61698 47.2994 1.36396ZM44.9007 1.32151C45.1718 1.24972 45.4039 1.25032 45.6749 1.21478C45.6744 1.35976 45.7126 1.50484 45.7119 1.68606C45.6732 1.68596 45.6344 1.7221 45.6344 1.7221C45.596 1.64951 45.5574 1.61317 45.4804 1.50424C45.4413 1.61287 45.4024 1.68526 45.3635 1.75765C45.0928 1.7207 44.8222 1.64751 44.5515 1.61057C44.5908 1.42944 44.7458 1.35735 44.9007 1.32151ZM44.7055 1.82844C44.6663 1.97332 44.7045 2.11839 44.627 2.15444C44.5105 2.26287 44.3941 2.37131 44.2392 2.40715C43.6968 2.62322 43.27 2.98457 42.8431 3.34591C42.6492 3.49039 42.4553 3.59863 42.2614 3.7431C42.2228 3.70676 42.2229 3.67052 42.1844 3.63417C42.999 3.02011 43.6978 2.33326 44.7055 1.82844ZM40.8647 4.86309C41.0981 4.50124 41.447 4.28468 41.8347 4.06821C41.6013 4.43006 41.2521 4.71911 40.8644 4.93558C40.8644 4.93558 40.8259 4.89923 40.8647 4.86309ZM40.8256 4.97173C40.7479 5.08026 40.6702 5.15255 40.5148 5.33337C40.6319 5.04372 40.6319 5.04372 40.8256 4.97173ZM36.1585 34.6807C35.9644 34.8615 35.9644 34.8615 35.6161 34.8968C35.6162 34.8606 35.5776 34.8242 35.5777 34.788C35.7713 34.7522 35.9262 34.7164 36.1585 34.6807ZM36.0204 7.17024C36.0972 7.35167 36.0193 7.49645 35.8644 7.53229C35.6708 7.56804 35.4775 7.53129 35.401 7.27738C35.6332 7.24173 35.8268 7.20599 36.0204 7.17024ZM32.9753 3.79156C33.1305 3.68322 33.3242 3.61123 33.4789 3.61164C33.6724 3.61214 33.6718 3.79336 33.71 3.93844C33.5159 4.11916 33.2836 4.15481 33.0517 4.08171C32.9359 4.00893 32.8591 3.8275 32.9753 3.79156ZM31.4811 33.4363C31.4423 33.4724 31.4036 33.4723 31.3649 33.4722C31.3262 33.4721 31.2876 33.4358 31.2105 33.3631C31.3267 33.3271 31.3654 33.3272 31.4041 33.3273C31.4426 33.3637 31.4811 33.4363 31.4811 33.4363ZM31.3125 3.53353C31.3123 3.60602 31.3508 3.64237 31.3507 3.67861C31.2731 3.7509 31.1569 3.78685 31.0792 3.85914C31.0407 3.82279 31.0408 3.78655 31.0022 3.7502C31.0799 3.67791 31.1962 3.60572 31.3125 3.53353ZM30.242 33.723C30.2808 33.6869 30.3581 33.7233 30.4743 33.6874C30.3965 33.7959 30.3577 33.8321 30.3189 33.8682C30.2801 33.9044 30.2028 33.8679 30.0867 33.8676C30.1644 33.7953 30.2032 33.7592 30.242 33.723ZM28.836 3.59962C28.8362 3.56337 28.8363 3.52712 28.8364 3.49088C28.9138 3.49108 28.9912 3.49128 29.0686 3.49148C29.0686 3.49148 29.0684 3.52772 29.0683 3.56397L28.836 3.59962ZM29.4965 2.80393C29.5352 2.80403 29.5739 2.80413 29.6125 2.84047C29.5732 3.0216 29.5338 3.20272 29.4942 3.49258C29.2631 3.16578 29.4571 3.0213 29.4965 2.80393ZM29.1482 2.83927C29.3802 2.87612 29.3409 3.05724 29.2243 3.20192C29.0696 3.20152 28.9148 3.20112 28.7215 3.16437C28.7996 2.9471 28.9161 2.80243 29.1482 2.83927ZM28.5263 3.6713C28.4873 3.74369 28.487 3.85243 28.4096 3.85223C27.8282 4.14068 27.2854 4.46549 26.7041 4.75394C27.1701 4.24772 28.2167 3.6705 28.5263 3.6713ZM25.663 3.70013C25.779 3.73668 25.8561 3.80937 25.9721 3.84592C25.9719 3.88216 25.9718 3.9184 25.9331 3.9183C25.8557 3.9181 25.817 3.91801 25.7398 3.88156C25.6625 3.84511 25.624 3.80877 25.5855 3.73618C25.6242 3.73628 25.6243 3.70003 25.663 3.70013ZM25.3927 3.55445C25.3926 3.5907 25.3924 3.62694 25.3923 3.66319C25.2759 3.77162 25.0828 3.66239 24.9281 3.62574C25.0829 3.62614 25.2378 3.5903 25.3927 3.55445ZM23.548 33.8507C23.703 33.7786 23.7806 33.7063 23.8969 33.6341C23.9354 33.7067 23.974 33.7431 23.9738 33.7793C23.8961 33.8878 23.8186 33.9239 23.548 33.8507ZM24.355 1.52203C24.4708 1.59482 24.4707 1.63107 24.3535 1.95698C24.0442 1.88368 23.5794 2.02746 23.4651 1.51973C23.814 1.30316 24.1236 1.30397 24.355 1.52203ZM22.1199 32.8321C22.0428 32.7594 22.0042 32.7231 21.9271 32.6504C21.9659 32.6143 22.0048 32.5419 22.0047 32.5781C22.0819 32.6146 22.1591 32.6872 22.2363 32.7237L22.1199 32.8321ZM22.1128 0.972554C22.0345 1.22607 21.8799 1.18942 21.7255 1.08029C21.8417 1.04434 21.9579 1.0084 22.1128 0.972554ZM21.9571 1.22587C21.9568 1.3346 21.9566 1.37085 21.9565 1.40709C21.879 1.44314 21.7628 1.47908 21.6853 1.51512C21.6854 1.47888 21.6469 1.44254 21.647 1.40629C21.7245 1.37025 21.8021 1.29796 21.9571 1.22587ZM19.9855 0.749574C19.9855 0.749574 20.0243 0.713431 20.0242 0.749674L20.0628 0.786017C20.0238 0.858408 20.0236 0.930898 19.9846 1.00329C19.9459 1.00319 19.9459 1.00319 19.9073 1.00309C19.9463 0.894454 19.9853 0.822064 19.9855 0.749574ZM19.6759 0.785016C19.7144 0.821363 19.7141 0.930097 19.6754 0.929996C19.5202 1.03833 19.4431 0.965642 19.3274 0.856608C19.4441 0.675685 19.5603 0.639739 19.6759 0.785016ZM17.3874 2.44637C17.8528 2.12137 18.2798 1.72378 18.9386 1.39928C18.8994 1.54416 18.8992 1.61665 18.8605 1.61655C18.5114 1.86936 18.1235 2.15832 17.7359 2.37479C17.6582 2.44708 17.5035 2.44668 17.3873 2.48262C17.3486 2.48252 17.3487 2.44627 17.3874 2.44637ZM17.3485 2.51876C17.3482 2.59126 17.348 2.66375 17.3093 2.66365C17.0766 2.80802 16.8441 2.91616 16.6116 3.02429C16.7672 2.77098 17 2.59035 17.3485 2.51876ZM16.2252 2.87831C16.3416 2.76987 16.4581 2.66144 16.5746 2.51676C16.5351 2.77038 16.5351 2.77038 16.2252 2.87831ZM2.24929 27.9601C2.09354 28.2496 1.97833 27.9956 1.82357 27.9952C1.94013 27.8505 2.05658 27.7421 2.24929 27.9601ZM1.32951 25.3843L1.40677 25.4207C1.40664 25.457 1.3677 25.5294 1.32889 25.5655C1.25163 25.5291 1.21306 25.4927 1.17437 25.4926C1.25188 25.4566 1.29069 25.4204 1.32951 25.3843ZM51.2708 5.39746C51.3095 5.39756 51.3482 5.39766 51.3868 5.39776C51.3871 5.32527 51.3487 5.25268 51.3489 5.18019C51.3102 5.18009 51.3102 5.18009 51.2715 5.17999C51.2326 5.25238 51.271 5.32497 51.2708 5.39746ZM63.086 12.4959C63.0474 12.4595 63.0476 12.4233 63.009 12.3869C62.9703 12.3868 62.9315 12.423 62.8928 12.4229C62.9314 12.4592 62.9312 12.4955 62.9312 12.4955C63.0085 12.5319 63.0473 12.4958 63.086 12.4959ZM56.182 6.13508C56.1822 6.09884 56.1822 6.09884 56.182 6.13508C56.0273 6.13468 55.9112 6.13438 55.7564 6.13398C55.9112 6.13438 56.066 6.13478 56.182 6.13508Z" fill="#9B51E0" fill-opacity="0.1"/>
</svg>
