<svg width="65" height="41" viewBox="0 0 65 41" fill="none" xmlns="http://www.w3.org/2000/svg">
<path d="M6.30984 32.813C6.30972 32.8546 6.30972 32.8546 6.30984 32.813V32.813ZM0.406751 27.2135C0.211938 27.6711 0.13319 28.1291 0.441357 28.5882C0.363477 28.7546 0.28572 28.8794 0.169152 29.0456C-0.0252901 29.3783 0.0124069 29.7117 0.127489 30.0453C0.165937 30.1287 0.320319 30.2541 0.359139 30.2126C0.707726 30.0886 1.17153 30.2566 1.40491 29.8408C1.52086 29.8828 1.59811 29.9247 1.71406 29.9667C1.44186 30.4241 0.937889 30.7558 1.12948 31.3812C1.3615 31.4236 1.55484 31.4658 1.74829 31.4664C1.86362 31.7167 1.90169 31.9251 1.785 32.133C1.78475 32.2163 1.74569 32.3412 1.78426 32.3829C1.9384 32.5917 2.13123 32.8005 2.32419 32.9677C2.44002 33.0514 2.6331 33.1769 2.7493 33.1356C3.67812 33.0551 4.64576 32.933 5.57459 32.8524C5.80686 32.8115 6.03901 32.8122 6.27115 32.8129C6.23333 32.5212 6.42691 32.4801 6.62036 32.4806C6.65906 32.4808 6.69737 32.6058 6.77438 32.731C6.6195 32.7722 6.46461 32.8134 6.27103 32.8545C6.42591 32.8133 6.6195 32.7722 6.77438 32.731L7.62558 32.7336C7.43175 32.858 7.35425 32.8994 7.23805 32.9407C7.31531 32.9826 7.39257 33.0245 7.46982 33.0664C7.39108 33.5243 7.27352 34.0239 7.62062 34.3998C7.30985 34.8155 7.23123 35.2318 7.42332 35.6906C8.00381 35.6506 8.39072 35.6518 8.66118 35.7776C8.62224 35.8608 8.58331 35.944 8.54437 36.0272C8.50531 36.152 8.42767 36.2351 8.38861 36.3599C8.27167 36.6512 8.34856 36.8181 8.65796 36.8606C8.69665 36.8607 8.73535 36.8609 8.81273 36.8611C9.04487 36.8618 9.12188 36.987 9.08245 37.2368C9.04338 37.3617 9.0042 37.5282 9.08145 37.57C9.2356 37.7788 9.42831 38.0293 9.66008 38.155C9.85316 38.2805 10.0853 38.2812 10.3176 38.2402C11.1691 38.1178 11.9822 37.9536 12.8338 37.7895C13.2597 37.7074 13.6858 37.5421 14.1105 37.8349C14.1109 37.71 14.1498 37.6268 14.15 37.5851C14.3437 37.5024 14.5759 37.4614 14.7696 37.3787C15.4669 37.0892 16.1642 36.7996 16.8617 36.4685C17.9464 36.0135 19.0312 35.5168 20.116 35.0202C20.4259 34.8961 20.7748 34.6889 21.0462 34.4814C21.3565 34.2324 21.705 34.1501 22.1307 34.1097C22.0916 34.2346 22.0914 34.3179 22.0526 34.3594C21.897 34.6089 21.6642 34.8582 21.5472 35.1494C21.4301 35.4823 21.429 35.8572 21.3892 36.232C21.3495 36.5651 21.2712 36.8982 21.2315 37.2313C21.1923 37.3978 21.1917 37.6061 21.1912 37.7727C21.4618 37.8568 21.6938 37.8992 22.0031 37.9834C22.0025 38.1917 22.0018 38.4 21.9625 38.6081C21.9231 38.8579 22 39.0248 22.1932 39.1087C22.4638 39.1928 22.4632 39.4011 22.4237 39.6509C22.4237 39.6509 22.4238 39.6092 22.4625 39.6094C22.54 39.5679 22.6175 39.5265 22.6564 39.485C22.6562 39.5266 22.6561 39.5683 22.656 39.6099C22.5786 39.6097 22.5012 39.6095 22.4237 39.6509C22.4623 39.6927 22.5395 39.7346 22.5393 39.8179C22.6918 40.5681 23.1946 40.653 23.7362 40.6546C24.4328 40.615 25.1294 40.5754 25.8259 40.5358C26.4451 40.496 27.0651 40.1646 27.7226 40.2499C27.8387 40.2502 27.955 40.1672 28.0712 40.1259C28.0713 40.0843 28.0713 40.0843 28.0715 40.0426L27.7619 40.0417C27.7621 40 27.7621 40 27.7622 39.9584C28.072 39.876 28.4205 39.7521 28.7303 39.6697C28.5751 39.8358 28.3816 39.8353 28.3035 40.085C28.4197 40.0437 28.4971 40.0439 28.5746 40.0025C29.1556 39.7959 29.7367 39.5477 30.279 39.341C30.705 39.1757 31.1313 38.9687 31.5189 38.7199C32.2554 38.2638 33.1075 37.9748 33.8055 37.4353C33.9993 37.3109 34.1537 37.4364 34.153 37.6863C34.1526 37.8113 34.1136 37.9361 34.0745 38.061L34.1132 38.0611C34.1912 37.853 34.2691 37.6866 34.3858 37.4787C34.4629 37.5622 34.54 37.6458 34.6172 37.7293C34.7724 37.5632 34.9278 37.3554 35.0444 37.1891C35.0827 37.3142 35.1209 37.4809 35.0821 37.5224C34.8882 37.6468 35.0032 38.0221 34.7322 38.0629C34.7316 38.2712 34.7696 38.5213 34.7688 38.7712C34.924 38.6467 35.0404 38.5221 35.1957 38.3559C35.233 38.8142 35.0389 39.0219 34.8837 39.1881C34.9603 39.4383 35.0756 39.6885 35.1137 39.8969C35.1509 40.3969 35.1895 40.4387 35.6151 40.44C35.7311 40.4403 35.8473 40.399 36.0021 40.3995C36.1182 40.3998 36.2731 40.3586 36.3502 40.4422C36.6205 40.6096 36.8915 40.5687 37.2013 40.4863C37.3563 40.4035 37.5113 40.3206 37.6662 40.2794C37.8986 40.1968 38.1307 40.1975 38.3235 40.4064C38.3621 40.4481 38.517 40.4069 38.6329 40.4489C38.5948 40.2822 38.5563 40.1988 38.5179 40.1154C39.0993 39.7422 39.0993 39.7422 39.4463 40.1598C39.5238 40.1183 39.6013 40.0769 39.6788 40.0355C39.5247 39.8268 39.6796 39.7856 39.8345 39.7444C40.0667 39.7034 40.2608 39.4957 40.4923 39.7047C40.5309 39.7464 40.6472 39.6635 40.686 39.6219C40.9187 39.456 41.1513 39.2901 41.384 39.1241C41.5003 39.0412 41.6167 38.9165 41.8101 38.9588C41.8873 39.0007 42.0036 38.9177 42.0811 38.8763C42.5462 38.6277 42.9725 38.379 43.4375 38.1305C43.8251 37.9234 44.251 37.7997 44.6001 37.5091C45.1432 37.0525 45.7246 36.6793 46.3061 36.3061C46.7325 36.0575 47.1589 35.7671 47.5854 35.4768C47.6242 35.4353 47.6629 35.4354 47.7403 35.4356C47.8177 35.4359 48.3984 35.3126 48.476 35.2295C48.67 35.0635 49.0182 35.0645 49.0193 34.6896C49.2899 34.7737 49.2521 34.482 49.3298 34.3573C49.5622 34.2747 49.8331 34.2755 49.9882 34.151C50.4148 33.819 50.8028 33.4452 51.191 33.0298C51.4625 32.7807 51.657 32.448 51.8901 32.1155C52.0455 31.9076 52.2008 31.7415 52.3946 31.6171C52.5497 31.4926 52.7047 31.4097 52.8599 31.2852C53.0538 31.1192 53.2479 30.9115 53.4418 30.7454C53.752 30.5381 54.0236 30.2889 54.0249 29.8307C54.2959 29.7899 54.5282 29.7489 54.4516 29.4571C54.6844 29.2495 54.8398 29.0417 55.0337 28.8756C55.1501 28.7926 55.2664 28.7097 55.3441 28.5849C55.4606 28.4603 55.6931 28.336 55.6935 28.2111C55.6946 27.8362 56.0046 27.6705 56.1988 27.4211C56.6647 26.881 57.1691 26.4242 57.5963 25.884C58.2562 25.1361 58.9163 24.3466 59.5764 23.5571C60.081 23.0171 60.5855 22.5187 61.0901 21.9787C61.6335 21.3971 62.1383 20.7738 62.6819 20.1505C63.3802 19.5278 64.04 18.8216 64.6612 18.1153C64.5461 17.7817 64.4696 17.4898 64.4315 17.2814C64.2384 17.1559 64.0451 17.1137 64.0455 16.9887C64.046 16.8221 64.1625 16.6558 64.2016 16.5309C63.8926 16.3634 63.6221 16.2376 63.3129 16.1117C63.2354 16.1532 63.0804 16.236 62.9254 16.3189C62.888 15.9022 63.2362 15.9032 63.4303 15.6955C63.1984 15.6115 62.9661 15.6525 62.8117 15.5271C62.6573 15.4016 62.542 15.1513 62.4263 15.026C62.1165 15.1084 61.8454 15.1909 61.5743 15.2734C61.4194 15.3146 61.2642 15.4808 61.1102 15.2304C61.1103 15.1887 60.9554 15.2299 60.8392 15.2713C60.7618 15.271 60.6843 15.3124 60.6069 15.3122C60.5691 15.0205 60.9948 14.9801 60.8798 14.6465C60.7634 14.7295 60.647 14.8541 60.5305 14.9787C60.4921 14.8953 60.4537 14.8119 60.4925 14.7703C60.6097 14.3958 60.6882 14.0211 60.844 13.6467C60.8829 13.6051 60.9991 13.5638 61.0379 13.5223C60.9997 13.3555 61.0002 13.1889 60.9618 13.0638C60.9623 12.8972 60.8851 12.8553 60.7302 12.8965C60.6528 12.8963 60.5753 12.9377 60.5753 12.9377C60.4215 12.604 60.2675 12.3536 60.1521 12.145C60.269 11.8537 60.3471 11.604 60.4253 11.3543C60.1165 11.1035 59.8464 10.8527 59.5763 10.602C59.4989 10.6018 59.3827 10.6431 59.2665 10.6844C59.2668 10.6011 59.267 10.5177 59.2673 10.4344C59.4239 9.81006 59.3092 9.3515 58.7297 9.05818C58.6524 9.01629 58.4982 8.84921 58.537 8.80767C58.6539 8.51642 58.422 8.43241 58.3064 8.26545C57.9213 7.68111 57.2253 7.51241 56.6825 7.88571C56.5662 7.96867 56.4114 7.96822 56.2954 7.96787C56.1789 8.09249 56.0622 8.30043 55.9071 8.42494C55.752 8.54944 55.5198 8.54875 55.4429 8.3819C55.3663 8.13173 55.173 8.0895 55.0185 8.00572C55.2518 7.58986 55.6766 7.88271 55.8706 7.67501C55.8326 7.46661 55.7944 7.29988 55.7561 7.17479C55.6397 7.25776 55.5621 7.34084 55.4459 7.38215C54.5545 7.87938 53.7403 8.46014 53.0031 9.16611C51.5285 10.6197 50.0925 12.1151 48.6564 13.6104C48.5788 13.6935 48.5013 13.7349 48.4237 13.818C48.3851 13.7762 48.3851 13.7762 48.3465 13.7345C48.4243 13.6097 48.5022 13.4433 48.5799 13.3186C49.2019 12.3207 49.8625 11.3646 50.4459 10.3665C50.8348 9.70119 51.185 9.03573 51.5353 8.32861C51.6909 8.03748 51.808 7.70458 51.7704 7.32956C51.6159 7.24579 51.5002 7.12047 51.3071 6.99493C51.462 6.95373 51.5395 6.91231 51.6945 6.82946C51.3468 6.6618 51.1536 6.57791 50.9218 6.45225L50.9233 5.95238C50.8072 5.95203 50.6912 5.95169 50.5751 5.95134C50.6921 5.61844 50.6921 5.61844 51.3114 5.53697C51.041 5.4112 50.8865 5.32743 50.6933 5.24354C50.8877 4.91087 50.6561 4.74355 50.3856 4.61778C50.1925 4.49223 49.9994 4.36669 49.845 4.24126C49.69 4.32411 49.535 4.40696 49.3413 4.4897C49.3424 4.1148 49.3433 3.8232 49.3442 3.53161C49.3453 3.15671 49.1526 2.9062 48.8825 2.65545C48.7668 2.53014 48.5734 2.48791 48.3802 2.40402C48.4193 2.27917 48.4584 2.15431 48.4974 2.02946C48.3814 2.02912 48.2653 2.02877 48.1491 2.07008C47.919 1.36124 47.8805 1.31947 47.2226 1.35917C47.1839 1.35905 47.1065 1.35882 47.1067 1.31717C46.9912 1.10854 46.8749 1.19151 46.7199 1.27436C46.4485 1.44018 46.2159 1.60611 45.9445 1.81358C45.8674 1.68839 45.7516 1.60473 45.6746 1.47953C45.5203 1.31245 45.4048 1.14548 45.2505 0.978394C45.0179 1.14432 44.7855 1.22695 44.5915 1.393C42.6524 2.92851 40.9061 4.67288 39.1598 6.41726C38.3835 7.24807 37.5685 8.07878 36.7923 8.86794C36.7147 8.95102 36.5985 8.99233 36.4434 9.11684C36.4054 8.86679 36.3672 8.70005 36.3677 8.53342C36.4073 8.24195 36.2917 8.07498 36.0598 7.99097C35.9439 7.94897 35.867 7.78212 35.7897 7.74024C35.7502 8.03171 35.7502 8.03171 35.3634 7.9889C35.4423 7.48926 35.4824 6.9895 35.5614 6.44821C35.484 6.44798 35.4067 6.44775 35.3292 6.48917C35.2517 6.5306 35.174 6.61368 35.1355 6.57191C34.749 6.40413 34.4773 6.69492 34.1674 6.81897C34.0124 6.90182 33.896 7.02644 33.7412 7.02598C33.7808 6.7345 33.859 6.44314 33.8211 6.19309C33.7839 5.6931 33.8242 5.15169 33.7096 4.65147L33.7097 4.60982C33.7489 4.44331 33.8267 4.31857 33.8659 4.15206C33.4407 3.98417 33.092 4.14976 32.8209 4.23226C32.6279 4.10672 32.4348 3.98118 32.2417 3.85563C32.3967 3.77278 32.5129 3.73147 32.5904 3.69005C32.4363 3.48131 32.2821 3.27257 32.1279 3.10548C32.0507 3.02194 31.8962 2.93817 31.7801 2.93782C31.6254 2.93736 31.4317 3.0201 31.2767 3.10295C30.7729 3.35139 30.2691 3.64149 29.7652 3.93158C29.689 3.55645 29.9996 3.18246 29.6136 2.88972C29.7686 2.80687 29.9236 2.72401 30.0399 2.64105C30.04 2.59939 30.0015 2.55762 30.0015 2.55762C29.6139 2.76475 29.2267 2.88857 28.8777 3.13747C28.1412 3.5935 27.4046 4.09118 26.7068 4.54733C26.4742 4.71326 26.2423 4.62926 26.1264 4.5456C25.6634 4.12766 25.1605 4.0845 24.5416 4.04101C24.6594 3.45817 24.4676 2.91607 24.6241 2.33334C24.7802 1.87559 24.6261 1.66685 24.1619 1.62381C24.0458 1.62346 23.8912 1.58135 23.775 1.62266C23.6202 1.6222 23.5043 1.5802 23.3886 1.45488C23.1573 1.1626 22.926 0.870317 22.6946 0.619688C22.6175 0.536149 22.5015 0.494144 22.3855 0.493798C22.1532 0.534764 21.921 0.534073 21.6885 0.658351C21.4173 0.782515 21.1459 0.98999 20.8357 1.19735C20.9138 0.947643 20.953 0.781133 20.9923 0.572971C20.6047 0.821753 20.5644 1.36317 20.1766 1.65361C20.216 1.40379 20.294 1.19574 20.2948 0.945798C20.2954 0.73752 20.2186 0.529008 20.142 0.278844C20.3743 0.237878 20.6065 0.196913 20.8001 0.155836C20.5297 0.0300609 20.5297 0.0300609 20.2971 0.154339C19.8709 0.361351 19.4448 0.52671 19.0957 0.817264C18.1651 1.52265 17.2341 2.31135 16.3033 3.0584C16.1482 3.18291 15.9929 3.34907 15.7602 3.55666C15.9537 3.51558 16.0311 3.51581 16.1085 3.51604C16.2243 3.5997 16.3403 3.6417 16.4948 3.72547C16.417 3.85021 16.3391 4.0166 16.2227 4.14123C15.951 4.43201 15.5249 4.59737 15.4462 5.05536C15.446 5.09701 15.4073 5.09689 15.3687 5.09678C14.6319 5.63612 13.9336 6.25889 13.351 7.00697C13.1957 7.21479 13.1566 7.33964 13.1947 7.54804C13.9687 7.46703 14.0847 7.50903 14.2774 7.75954C14.0836 7.88393 13.7738 7.96633 13.6571 8.17426C13.5404 8.38219 13.4626 8.50693 13.2301 8.63121C13.0751 8.71406 13.0358 8.92223 13.1514 9.0892C13.2283 9.25605 13.3833 9.1732 13.4996 9.09023C13.6546 9.00738 13.7711 8.88276 13.9259 8.84156C13.9648 8.80002 14.0806 8.88368 14.1193 8.88379C14.0803 8.96699 14.0801 9.0503 14.0413 9.09184C13.9636 9.17493 13.8474 9.21624 13.7698 9.29932C13.6922 9.3824 13.5372 9.46525 13.5369 9.54856C13.5748 9.84027 13.3812 9.88135 13.2262 9.9642C13.1098 10.0472 12.9935 10.1301 12.8772 10.2131C12.954 10.4216 12.9922 10.5884 13.0304 10.7551C12.9915 10.7966 12.9526 10.8798 12.9525 10.9215C10.895 13.2065 8.87643 15.4499 6.819 17.7349C5.92626 18.6903 5.03352 19.6458 4.17935 20.643C3.7912 21.0584 3.44162 21.5156 3.24643 22.0982C3.16843 22.3062 3.05161 22.5558 2.89635 22.722C2.314 23.3867 1.69297 24.0514 1.11063 24.7162C0.761167 25.1317 0.411832 25.5056 0.178075 26.0464C0.0999544 26.2961 0.0606462 26.5043 0.253477 26.7131C0.601944 26.6308 0.562512 26.8807 0.406751 27.2135ZM21.5027 37.1071C21.5793 37.3573 21.6561 37.5658 21.6942 37.7742C21.3071 37.8147 21.2686 37.7729 21.5027 37.1071ZM62.2306 15.7753C62.2307 15.7336 62.3469 15.6923 62.3857 15.6508C62.4242 15.7342 62.5013 15.8177 62.5012 15.8594C62.4621 15.9842 62.3844 16.109 62.3067 16.1921C62.268 16.1919 62.2295 16.1502 62.2295 16.1502C62.2298 16.0252 62.1915 15.9001 62.2306 15.7753ZM60.1167 11.0202C59.9612 11.2696 60.27 11.5205 59.96 11.6862C59.8446 11.4359 59.7292 11.2273 59.5752 10.9769C59.7686 10.9775 59.8846 11.0195 60.1167 11.0202ZM59.038 9.47566C59.0375 9.64228 59.0757 9.80902 59.0753 9.93399C59.0366 9.93387 58.9978 9.97541 58.9978 9.97541C58.9207 9.89187 58.8048 9.80822 58.6504 9.68279C58.8054 9.59994 58.883 9.55851 59.038 9.47566ZM58.6488 10.2243C58.803 10.4331 58.841 10.6414 58.6472 10.7658C58.6085 10.7657 58.57 10.724 58.5313 10.7238C58.5319 10.5156 58.6096 10.3908 58.6488 10.2243ZM57.185 8.05383C57.4564 7.88801 57.8044 7.9307 58.0747 8.13979C57.8811 8.18087 57.6875 8.22195 57.4938 8.30469C57.3001 8.38742 57.1064 8.47016 56.9513 8.59467C56.9127 8.5529 56.8741 8.51112 56.8356 8.46935C56.952 8.34473 57.03 8.13668 57.185 8.05383ZM53.8549 8.96036C53.9712 8.87739 54.0875 8.79443 54.1265 8.71123C54.3213 8.25359 54.7466 8.33817 55.1727 8.17281C54.9393 8.58868 54.9377 9.13021 54.3193 8.92009C54.242 8.8782 54.1643 9.00294 54.0868 9.04436C53.6602 9.37635 53.2335 9.74998 52.8456 10.0821C52.807 10.0403 52.807 10.0403 52.7684 9.99854C53.1565 9.62478 53.5057 9.29257 53.8549 8.96036ZM49.9516 33.4427C49.9514 33.526 49.9511 33.6093 49.951 33.651C49.9117 33.8591 49.8345 33.7756 49.6413 33.6917C49.7578 33.5671 49.8353 33.5257 49.9516 33.4427ZM51.3835 7.32841C51.6147 7.66235 51.5751 7.95382 51.1091 8.53563C51.2263 8.16107 51.3049 7.74474 51.3835 7.32841ZM50.1532 4.7004C50.2306 4.70063 50.2689 4.82571 50.3462 4.8676C50.2687 4.90902 50.1909 5.03376 50.1522 5.03365C50.0363 4.99164 49.9591 4.9081 49.7659 4.82422C49.9596 4.74148 50.0371 4.70005 50.1532 4.7004ZM48.8425 3.0719C49.0747 3.07259 49.0354 3.28075 48.9961 3.48892L48.6479 3.48788C48.5325 3.2376 48.6104 3.07121 48.8425 3.0719ZM48.6076 4.0293L48.6462 4.02941C48.6073 4.11261 48.6069 4.23757 48.568 4.32077C48.5293 4.32066 48.5293 4.32066 48.4907 4.27889C48.5295 4.23734 48.5686 4.11249 48.6076 4.0293ZM47.2994 1.56768C47.2988 1.77596 47.337 1.9427 47.298 2.0259C47.1425 2.27537 46.91 2.39965 46.5232 2.35684C46.7949 2.06606 47.0277 1.85846 47.2994 1.56768ZM44.9007 1.51889C45.1718 1.43638 45.4039 1.43707 45.6749 1.39622C45.6744 1.56284 45.7126 1.72958 45.7119 1.93786C45.6732 1.93775 45.6344 1.97929 45.6344 1.97929C45.596 1.89586 45.5574 1.85409 45.4804 1.72889C45.4413 1.85374 45.4024 1.93694 45.3635 2.02014C45.0928 1.97768 44.8222 1.89356 44.5515 1.8511C44.5908 1.64293 44.7458 1.56008 44.9007 1.51889ZM44.7055 2.1015C44.6663 2.26801 44.7045 2.43474 44.627 2.47617C44.5105 2.60079 44.3941 2.72542 44.2392 2.76661C43.6968 3.01493 43.27 3.43023 42.8431 3.84552C42.6492 4.01157 42.4553 4.13596 42.2614 4.30201C42.2228 4.26024 42.2229 4.21858 42.1844 4.17681C42.999 3.47108 43.6978 2.68169 44.7055 2.1015ZM40.8647 5.5892C41.0981 5.17333 41.447 4.92443 41.8347 4.67565C41.6013 5.09152 41.2521 5.42373 40.8644 5.67251C40.8644 5.67251 40.8259 5.63074 40.8647 5.5892ZM40.8256 5.71406C40.7479 5.83879 40.6702 5.92187 40.5148 6.12969C40.6319 5.79679 40.6319 5.79679 40.8256 5.71406ZM36.1585 39.8584C35.9644 40.0661 35.9644 40.0661 35.6161 40.1067C35.6162 40.0651 35.5776 40.0233 35.5777 39.9816C35.7713 39.9406 35.9262 39.8994 36.1585 39.8584ZM36.0204 8.2408C36.0972 8.44931 36.0193 8.6157 35.8644 8.6569C35.6708 8.69798 35.4775 8.65575 35.401 8.36392C35.6332 8.32296 35.8268 8.28187 36.0204 8.2408ZM32.9753 4.3577C33.1305 4.23319 33.3242 4.15045 33.4789 4.15091C33.6724 4.15149 33.6718 4.35977 33.71 4.52651C33.5159 4.73421 33.2836 4.77517 33.0517 4.69117C32.9359 4.60752 32.8591 4.399 32.9753 4.3577ZM31.4811 38.4282C31.4423 38.4697 31.4036 38.4696 31.3649 38.4695C31.3262 38.4694 31.2876 38.4276 31.2105 38.344C31.3267 38.3027 31.3654 38.3028 31.4041 38.303C31.4426 38.3447 31.4811 38.4282 31.4811 38.4282ZM31.3125 4.06115C31.3123 4.14446 31.3508 4.18623 31.3507 4.22789C31.2731 4.31097 31.1569 4.35228 31.0792 4.43537C31.0407 4.39359 31.0408 4.35194 31.0022 4.31017C31.0799 4.22708 31.1962 4.14412 31.3125 4.06115ZM30.242 38.7577C30.2808 38.7162 30.3581 38.7581 30.4743 38.7168C30.3965 38.8415 30.3577 38.883 30.3189 38.9246C30.2801 38.9661 30.2028 38.9242 30.0867 38.9239C30.1644 38.8408 30.2032 38.7993 30.242 38.7577ZM28.836 4.1371C28.8362 4.09544 28.8363 4.05379 28.8364 4.01213C28.9138 4.01236 28.9912 4.01259 29.0686 4.01282C29.0686 4.01282 29.0684 4.05447 29.0683 4.09613L28.836 4.1371ZM29.4965 3.22262C29.5352 3.22274 29.5739 3.22285 29.6125 3.26462C29.5732 3.47279 29.5338 3.68095 29.4942 4.01409C29.2631 3.63849 29.4571 3.47244 29.4965 3.22262ZM29.1482 3.26324C29.3802 3.30559 29.3409 3.51375 29.2243 3.68003C29.0696 3.67957 28.9148 3.67911 28.7215 3.63688C28.7996 3.38717 28.9161 3.22089 29.1482 3.26324ZM28.5263 4.21949C28.4873 4.30268 28.487 4.42765 28.4096 4.42742C27.8282 4.75894 27.2854 5.13224 26.7041 5.46376C27.1701 4.88195 28.2167 4.21857 28.5263 4.21949ZM25.663 4.25262C25.779 4.29463 25.8561 4.37817 25.9721 4.42017C25.9719 4.46183 25.9718 4.50348 25.9331 4.50337C25.8557 4.50314 25.817 4.50302 25.7398 4.46114C25.6625 4.41925 25.624 4.37748 25.5855 4.29405C25.6242 4.29417 25.6243 4.25251 25.663 4.25262ZM25.3927 4.08519C25.3926 4.12685 25.3924 4.16851 25.3923 4.21016C25.2759 4.33479 25.0828 4.20924 24.9281 4.16713C25.0829 4.16759 25.2378 4.12639 25.3927 4.08519ZM23.548 38.9044C23.703 38.8216 23.7806 38.7385 23.8969 38.6555C23.9354 38.739 23.974 38.7807 23.9738 38.8224C23.8961 38.9471 23.8186 38.9886 23.548 38.9044ZM24.355 1.74935C24.4708 1.83301 24.4707 1.87467 24.3535 2.24923C24.0442 2.16499 23.5794 2.33023 23.4651 1.7467C23.814 1.4978 24.1236 1.49872 24.355 1.74935ZM22.1199 37.7338C22.0428 37.6503 22.0042 37.6085 21.9271 37.525C21.9659 37.4834 22.0048 37.4002 22.0047 37.4419C22.0819 37.4838 22.1591 37.5673 22.2363 37.6092L22.1199 37.7338ZM22.1128 1.11783C22.0345 1.4092 21.8799 1.36708 21.7255 1.24165C21.8417 1.20034 21.9579 1.15903 22.1128 1.11783ZM21.9571 1.40897C21.9568 1.53394 21.9566 1.57559 21.9565 1.61725C21.879 1.65867 21.7628 1.69998 21.6853 1.74141C21.6854 1.69975 21.6469 1.65798 21.647 1.61633C21.7245 1.5749 21.8021 1.49182 21.9571 1.40897ZM19.9855 0.861568C19.9855 0.861568 20.0243 0.820027 20.0242 0.861683L20.0628 0.903454C20.0238 0.986648 20.0236 1.06996 19.9846 1.15316C19.946 1.15304 19.9459 1.15304 19.9073 1.15293C19.9463 1.02807 19.9853 0.944881 19.9855 0.861568ZM19.6759 0.902303C19.7144 0.944075 19.7141 1.06904 19.6754 1.06892C19.5202 1.19343 19.4431 1.10989 19.3274 0.98458C19.4441 0.776644 19.5603 0.735333 19.6759 0.902303ZM17.3874 2.81169C17.8528 2.43816 18.2798 1.98122 18.9386 1.60827C18.8994 1.77478 18.8992 1.85809 18.8605 1.85797C18.5114 2.14853 18.1235 2.48063 17.7359 2.72941C17.6582 2.81249 17.5035 2.81203 17.3873 2.85334C17.3486 2.85323 17.3487 2.81157 17.3874 2.81169ZM17.3485 2.89488C17.3482 2.9782 17.348 3.06151 17.3093 3.06139C17.0766 3.22733 16.8441 3.3516 16.6116 3.47588C16.7672 3.18475 17 2.97716 17.3485 2.89488ZM16.2252 3.30811C16.3416 3.18349 16.4581 3.05886 16.5746 2.89258C16.5351 3.18406 16.5351 3.18406 16.2252 3.30811ZM2.24929 32.1344C2.09354 32.4672 1.97833 32.1752 1.82356 32.1748C1.94013 32.0085 2.05658 31.8839 2.24929 32.1344ZM1.32951 29.1741L1.40677 29.2159C1.40664 29.2576 1.3677 29.3408 1.32889 29.3823C1.25163 29.3404 1.21307 29.2987 1.17437 29.2986C1.25188 29.2571 1.29069 29.2156 1.32951 29.1741ZM51.2708 6.20335C51.3095 6.20347 51.3482 6.20358 51.3868 6.2037C51.3871 6.12039 51.3487 6.03696 51.3489 5.95364C51.3102 5.95353 51.3102 5.95353 51.2715 5.95341C51.2326 6.03661 51.271 6.12004 51.2708 6.20335ZM63.086 14.3615C63.0474 14.3197 63.0476 14.2781 63.009 14.2363C62.9703 14.2362 62.9315 14.2777 62.8928 14.2776C62.9314 14.3194 62.9312 14.361 62.9312 14.361C63.0085 14.4029 63.0473 14.3614 63.086 14.3615ZM56.182 7.05109C56.1822 7.00943 56.1822 7.00943 56.182 7.05109C56.0273 7.05063 55.9112 7.05028 55.7564 7.04982C55.9112 7.05028 56.066 7.05075 56.182 7.05109Z" fill="#FF2E2E" fill-opacity="0.1"/>
</svg>
