<svg xmlns="http://www.w3.org/2000/svg" width="70" height="57" viewBox="0 0 70 57" fill="none"><path d="M66.8013 48.4532C64.4108 48.605 62.0202 48.7569 59.6297 48.9087C57.2391 49.0605 54.8486 49.2123 52.458 49.3641C50.0675 49.5159 47.647 49.6534 45.2564 49.8052C42.8659 49.957 40.4753 50.1088 38.0848 50.2606C35.6943 50.4124 33.3037 50.5642 30.9132 50.716C30.616 50.7219 30.3045 50.7579 30.0073 50.7638C29.6657 50.7855 29.3256 50.8815 29.0169 51.0662C28.6925 51.2066 28.4137 51.4056 28.1964 51.7076C27.9491 51.9952 27.7617 52.3114 27.7087 52.6547C27.5513 52.9852 27.5283 53.3428 27.5795 53.6989C27.6663 54.3668 27.9474 55.0903 28.4902 55.4961C29.0786 55.9605 29.7372 56.2004 30.4645 56.1412C32.855 55.9894 35.2456 55.8376 37.6361 55.6858C39.9667 55.5055 42.3872 55.3679 44.7777 55.2161C47.1683 55.0643 49.5888 54.9268 51.9794 54.775C54.3699 54.6232 56.7604 54.4714 59.181 54.3339C61.5715 54.1821 63.9621 54.0303 66.3526 53.8785C66.6498 53.8726 66.9613 53.8366 67.2585 53.8307C67.6 53.809 67.9401 53.7129 68.2489 53.5282C68.5733 53.3878 68.852 53.1889 69.0694 52.8869C69.3167 52.5993 69.5041 52.2831 69.5571 51.9398C69.7145 51.6093 69.7375 51.2517 69.6863 50.8956C69.5995 50.2277 69.3184 49.5042 68.7756 49.0984C68.2172 48.6482 67.5586 48.4084 66.8013 48.4532Z" fill="#48FFFF"></path><path d="M46.2538 22.8228C44.3903 23.3361 42.5568 23.8637 40.7233 24.3912C38.8755 24.9489 37.0277 25.5065 35.2113 26.1528C33.3949 26.799 31.6242 27.5039 29.8849 28.2975C27.9683 29.1541 26.0989 30.1436 24.3208 31.2504C22.7043 32.2498 21.1491 33.3522 19.7453 34.6003C19.3793 34.9052 19.0577 35.1943 18.7218 35.5135C18.4744 35.8012 18.2871 36.1174 18.234 36.4607C18.0767 36.7912 18.0536 37.1488 18.1049 37.5049C18.1261 37.8467 18.2217 38.187 18.4058 38.4958C18.5457 38.8204 18.7441 39.0992 19.0455 39.3163C19.2412 39.4464 19.4369 39.5764 19.6626 39.7207C20.1125 39.9349 20.5597 40.0004 21.0498 39.9758C21.257 39.927 21.4942 39.8925 21.7158 39.8137C22.1588 39.6561 22.5404 39.3955 22.8607 39.032C22.905 39.0162 22.9336 38.9561 22.9779 38.9404C22.8021 39.0778 22.642 39.2596 22.4661 39.397C24.3817 37.6922 26.4657 36.252 28.6868 34.9876C29.3043 34.6181 29.9374 34.293 30.5706 33.968C30.3791 34.061 30.1732 34.1842 29.9517 34.263C32.1899 33.1173 34.5066 32.1932 36.8689 31.3277C39.157 30.4637 41.5664 29.7312 43.9915 29.0431C45.352 28.6588 46.7124 28.2746 48.0729 27.8904C48.413 27.7943 48.6917 27.5953 48.9548 27.352C49.2478 27.1229 49.4509 26.8511 49.6082 26.5206C49.7656 26.1901 49.8629 25.831 49.8417 25.4892C49.8947 25.1459 49.8435 24.7898 49.7036 24.4652C49.4539 23.8304 48.9813 23.1999 48.337 22.9301C48.1127 22.8601 47.8884 22.7902 47.6341 22.706C47.1569 22.6262 46.7268 22.6794 46.2538 22.8228Z" fill="#48FFFF"></path><path d="M17.3708 4.57521C17.4465 4.6481 17.4779 4.73676 17.5393 4.8397C17.4465 4.64811 17.3237 4.44223 17.2452 4.22059C17.3066 4.32353 17.3237 4.44223 17.3408 4.56093C17.2923 4.35358 17.2582 4.11618 17.1797 3.89455C17.1968 4.01325 17.2138 4.13194 17.2166 4.28069C17.2125 4.05757 17.2526 3.81869 17.2484 3.59557C17.2369 3.77436 17.2111 3.9832 17.1252 4.16347C17.1954 3.93887 17.2655 3.71427 17.35 3.45963C17.2226 3.80441 17.0653 4.1349 16.8922 4.42107C17.0223 4.22504 17.1525 4.02901 17.2969 3.80293C16.8636 4.48116 16.3089 5.0279 15.7999 5.63324C15.2037 6.34448 14.5932 7.08576 13.997 7.797C12.8203 9.26381 11.6736 10.7449 10.5568 12.2403C8.20895 15.4714 6.02675 18.8182 4.01024 22.2808C2.94476 24.1323 1.90929 25.998 0.963804 27.9066C0.806455 28.2371 0.709099 28.5962 0.73035 28.938C0.677297 29.2813 0.728554 29.6374 0.868405 29.962C0.963959 30.3023 1.16242 30.5811 1.40518 30.8441C1.63364 31.1371 1.90501 31.34 2.23499 31.4971C2.87926 31.767 3.63935 31.8709 4.2882 31.5901C4.96704 31.3236 5.47881 30.8671 5.82351 30.2203C7.22813 27.4247 8.75273 24.6861 10.383 22.0348C10.8449 21.2964 11.3211 20.5281 11.8131 19.804C11.6829 20.0001 11.5528 20.1961 11.4084 20.4222C12.9256 18.0855 14.5629 15.806 16.2458 13.5851C17.1023 12.4818 17.9444 11.4086 18.8609 10.3338C19.297 9.80434 19.7773 9.25909 20.2134 8.7296C20.5623 8.30601 20.9411 7.89669 21.26 7.45882C21.5346 7.03671 21.8391 6.62888 22.0537 6.17821C22.254 5.75758 22.4085 5.27834 22.5188 4.81486C22.7509 3.70912 22.5043 2.44923 21.819 1.57009C21.6348 1.26129 21.3777 1.02833 21.0621 0.841181C20.7607 0.623988 20.4307 0.466877 20.0878 0.414193C19.7149 0.347225 19.3877 0.338864 19.0476 0.434925C18.6918 0.486656 18.3817 0.596996 18.0886 0.826036C17.5169 1.25407 17.0379 1.87369 16.9618 2.57457C16.8557 3.26116 16.9439 4.00341 17.3708 4.57521Z" fill="#48FFFF"></path></svg>